<mxfile host="Electron" modified="2024-04-30T11:56:16.667Z" agent="Mozilla/5.0 (Macintosh; Intel Mac OS X 10_15_7) AppleWebKit/537.36 (KHTML, like Gecko) draw.io/24.2.5 Chrome/120.0.6099.109 Electron/28.1.0 Safari/537.36" etag="kSJeWKa_zpuXjPebcBb9" version="24.2.5" type="device" pages="4">
  <diagram id="AUlgfaHTGSCatWL8QB3t" name="Vision and design prototyping">
    <mxGraphModel dx="972" dy="706" grid="1" gridSize="10" guides="1" tooltips="1" connect="1" arrows="1" fold="1" page="1" pageScale="1" pageWidth="850" pageHeight="1100" math="0" shadow="0">
      <root>
        <mxCell id="0" />
        <mxCell id="1" parent="0" />
        <mxCell id="OOJ0rVYJN1lUEFXnlSiB-1" style="edgeStyle=orthogonalEdgeStyle;rounded=0;orthogonalLoop=1;jettySize=auto;html=1;" parent="1" source="OOJ0rVYJN1lUEFXnlSiB-2" target="OOJ0rVYJN1lUEFXnlSiB-21" edge="1">
          <mxGeometry relative="1" as="geometry" />
        </mxCell>
        <mxCell id="OOJ0rVYJN1lUEFXnlSiB-2" value="Interview participants" style="shape=umlActor;verticalLabelPosition=bottom;verticalAlign=top;html=1;outlineConnect=0;" parent="1" vertex="1">
          <mxGeometry x="620" y="420" width="30" height="60" as="geometry" />
        </mxCell>
        <mxCell id="OOJ0rVYJN1lUEFXnlSiB-3" style="edgeStyle=orthogonalEdgeStyle;rounded=0;orthogonalLoop=1;jettySize=auto;html=1;exitX=0;exitY=0;exitDx=0;exitDy=35.165;exitPerimeter=0;" parent="1" source="OOJ0rVYJN1lUEFXnlSiB-4" target="OOJ0rVYJN1lUEFXnlSiB-2" edge="1">
          <mxGeometry relative="1" as="geometry">
            <Array as="points">
              <mxPoint x="385" y="257" />
              <mxPoint x="385" y="346" />
              <mxPoint x="635" y="346" />
            </Array>
          </mxGeometry>
        </mxCell>
        <mxCell id="OOJ0rVYJN1lUEFXnlSiB-4" value="Operator dashboard mockups" style="verticalLabelPosition=bottom;verticalAlign=top;html=1;shape=mxgraph.basic.layered_rect;dx=9.67;outlineConnect=0;whiteSpace=wrap;" parent="1" vertex="1">
          <mxGeometry x="405" y="222" width="140" height="80" as="geometry" />
        </mxCell>
        <mxCell id="OOJ0rVYJN1lUEFXnlSiB-5" style="edgeStyle=orthogonalEdgeStyle;rounded=0;orthogonalLoop=1;jettySize=auto;html=1;entryX=0;entryY=0.5;entryDx=0;entryDy=0;" parent="1" source="OOJ0rVYJN1lUEFXnlSiB-6" target="OOJ0rVYJN1lUEFXnlSiB-8" edge="1">
          <mxGeometry relative="1" as="geometry" />
        </mxCell>
        <mxCell id="OOJ0rVYJN1lUEFXnlSiB-6" value="Challenges and limitations" style="rounded=0;whiteSpace=wrap;html=1;" parent="1" vertex="1">
          <mxGeometry x="250" y="100" width="120" height="60" as="geometry" />
        </mxCell>
        <mxCell id="OOJ0rVYJN1lUEFXnlSiB-7" style="edgeStyle=orthogonalEdgeStyle;rounded=0;orthogonalLoop=1;jettySize=auto;html=1;entryX=0;entryY=0.5;entryDx=0;entryDy=0;" parent="1" source="OOJ0rVYJN1lUEFXnlSiB-8" target="OOJ0rVYJN1lUEFXnlSiB-12" edge="1">
          <mxGeometry relative="1" as="geometry" />
        </mxCell>
        <mxCell id="OOJ0rVYJN1lUEFXnlSiB-8" value="Improvement opportunities" style="rounded=0;whiteSpace=wrap;html=1;" parent="1" vertex="1">
          <mxGeometry x="413.13" y="100" width="120" height="60" as="geometry" />
        </mxCell>
        <mxCell id="OOJ0rVYJN1lUEFXnlSiB-9" style="edgeStyle=orthogonalEdgeStyle;rounded=0;orthogonalLoop=1;jettySize=auto;html=1;" parent="1" source="OOJ0rVYJN1lUEFXnlSiB-12" target="OOJ0rVYJN1lUEFXnlSiB-4" edge="1">
          <mxGeometry relative="1" as="geometry">
            <Array as="points">
              <mxPoint x="635" y="190" />
              <mxPoint x="475" y="190" />
            </Array>
          </mxGeometry>
        </mxCell>
        <mxCell id="OOJ0rVYJN1lUEFXnlSiB-10" style="edgeStyle=orthogonalEdgeStyle;rounded=0;orthogonalLoop=1;jettySize=auto;html=1;" parent="1" source="OOJ0rVYJN1lUEFXnlSiB-12" target="OOJ0rVYJN1lUEFXnlSiB-16" edge="1">
          <mxGeometry relative="1" as="geometry" />
        </mxCell>
        <mxCell id="OOJ0rVYJN1lUEFXnlSiB-11" style="edgeStyle=orthogonalEdgeStyle;rounded=0;orthogonalLoop=1;jettySize=auto;html=1;" parent="1" source="OOJ0rVYJN1lUEFXnlSiB-12" target="OOJ0rVYJN1lUEFXnlSiB-19" edge="1">
          <mxGeometry relative="1" as="geometry">
            <Array as="points">
              <mxPoint x="635" y="190" />
              <mxPoint x="780" y="190" />
            </Array>
          </mxGeometry>
        </mxCell>
        <mxCell id="OOJ0rVYJN1lUEFXnlSiB-12" value="Vision" style="rounded=0;whiteSpace=wrap;html=1;" parent="1" vertex="1">
          <mxGeometry x="575" y="100" width="120" height="60" as="geometry" />
        </mxCell>
        <mxCell id="OOJ0rVYJN1lUEFXnlSiB-13" value="" style="shape=image;imageAspect=0;aspect=fixed;verticalLabelPosition=bottom;verticalAlign=top;image=data:image/svg+xml,PHN2ZyB4bWxuczp4bGluaz0iaHR0cDovL3d3dy53My5vcmcvMTk5OS94bGluayIgeG1sbnM9Imh0dHA6Ly93d3cudzMub3JnLzIwMDAvc3ZnIiB2aWV3Qm94PSItMC41IC0wLjUgODMxIDUxMSIgaGVpZ2h0PSI1MTFweCIgd2lkdGg9IjgzMXB4IiB2ZXJzaW9uPSIxLjEiPjxkZWZzPjxsaW5lYXJHcmFkaWVudCBpZD0ibXgtZ3JhZGllbnQtZGRlZWZmLTEtYWFkZGZmLTEtcy0wIiB5Mj0iMTAwJSIgeDI9IjAlIiB5MT0iMCUiIHgxPSIwJSI+PHN0b3Agc3R5bGU9InN0b3AtY29sb3I6IHJnYigyMjEsIDIzOCwgMjU1KTsgc3RvcC1vcGFjaXR5OiAxOyIgb2Zmc2V0PSIwJSIvPjxzdG9wIHN0eWxlPSJzdG9wLWNvbG9yOiByZ2IoMTcwLCAyMjEsIDI1NSk7IHN0b3Atb3BhY2l0eTogMTsiIG9mZnNldD0iMTAwJSIvPjwvbGluZWFyR3JhZGllbnQ+PC9kZWZzPjxnPjxyZWN0IHN0cm9rZT0icmdiKDAsIDAsIDApIiBmaWxsPSJub25lIiBoZWlnaHQ9IjUxMCIgd2lkdGg9IjgzMCIgeT0iMCIgeD0iMCIvPjxyZWN0IHN0cm9rZT0iI2Q2YjY1NiIgZmlsbD0iI2ZmZjJjYyIgcnk9IjYuOCIgcng9IjYuOCIgaGVpZ2h0PSI0NS4zMyIgd2lkdGg9Ijc2MC44MyIgeT0iMzQiIHg9IjM0LjU4Ii8+PHBhdGggc3Ryb2tlLW1pdGVybGltaXQ9IjEwIiBzdHJva2U9IiNiODU0NTAiIGZpbGw9IiNmOGNlY2MiIGQ9Ik0gNjM0LjAzIDQ5LjY3IEMgNjM0LjAzIDQ0LjE0IDYzOC41IDM5LjY3IDY0NC4wMyAzOS42NyBMIDc3My44OSAzOS42NyBDIDc3OS40MSAzOS42NyA3ODMuODkgNDQuMTQgNzgzLjg5IDQ5LjY3IEwgNzgzLjg5IDYzLjY3IEMgNzgzLjg5IDY5LjE5IDc3OS40MSA3My42NyA3NzMuODkgNzMuNjcgTCA2NDQuMDMgNzMuNjcgQyA2MzguNSA3My42NyA2MzQuMDMgNjkuMTkgNjM0LjAzIDYzLjY3IFoiLz48ZyBmb250LXNpemU9IjE3cHgiIHRleHQtYW5jaG9yPSJtaWRkbGUiIGZvbnQtd2VpZ2h0PSJib2xkIiBmb250LWZhbWlseT0iQXJpYWwsSGVsdmV0aWNhIiBmaWxsPSIjNjY2NjY2Ii8+PHJlY3Qgc3Ryb2tlPSJub25lIiBmaWxsPSJyZ2IoMjU1LCAyNTUsIDI1NSkiIGhlaWdodD0iMjYwLjY3IiB3aWR0aD0iNzYwLjgzIiB5PSIyMTUuMzMiIHg9IjM0LjU4Ii8+PHBhdGggc3Ryb2tlLW1pdGVybGltaXQ9IjEwIiBzdHJva2UtbGluZWNhcD0ic3F1YXJlIiBzdHJva2U9InJnYigwLCAwLCAwKSIgZmlsbD0ibm9uZSIgZD0iTSAzNC41OCAyMTUuMzMgTCA3OTUuNDIgMjE1LjMzIEwgNzk1LjQyIDQ3NiBMIDM0LjU4IDQ3NiBMIDM0LjU4IDIxNS4zMyIvPjxwYXRoIHN0cm9rZS1taXRlcmxpbWl0PSIxMCIgc3Ryb2tlPSJyZ2IoMCwgMCwgMCkiIGZpbGw9Im5vbmUiIGQ9Ik0gMzQuNTggMjU5LjMzIEwgMjY1LjU4IDI1OS4zMyBMIDM5MS41OCAyNTkuMzMgTCA1NDEuNTggMjU5LjMzIEwgNzk1LjU4IDI1OS4zMyIvPjxwYXRoIHN0cm9rZS1taXRlcmxpbWl0PSIxMCIgc3Ryb2tlPSJyZ2IoMCwgMCwgMCkiIGZpbGw9Im5vbmUiIGQ9Ik0gMzQuNTggMzAxLjMzIEwgMjY1LjU4IDMwMS4zMyBMIDM5MS41OCAzMDEuMzMgTCA1NDEuNTggMzAxLjMzIEwgNzk1LjU4IDMwMS4zMyIvPjxwYXRoIHN0cm9rZS1taXRlcmxpbWl0PSIxMCIgc3Ryb2tlPSJyZ2IoMCwgMCwgMCkiIGZpbGw9Im5vbmUiIGQ9Ik0gMzQuNTggMzQ1LjMzIEwgMjY1LjU4IDM0NS4zMyBMIDM5MS41OCAzNDUuMzMgTCA1NDEuNTggMzQ1LjMzIEwgNzk1LjU4IDM0NS4zMyIvPjxwYXRoIHN0cm9rZS1taXRlcmxpbWl0PSIxMCIgc3Ryb2tlPSJyZ2IoMCwgMCwgMCkiIGZpbGw9Im5vbmUiIGQ9Ik0gMzQuNTggMzkwLjMzIEwgMjY1LjU4IDM5MC4zMyBMIDM5MS41OCAzOTAuMzMgTCA1NDEuNTggMzkwLjMzIEwgNzk1LjU4IDM5MC4zMyIvPjxwYXRoIHN0cm9rZS1taXRlcmxpbWl0PSIxMCIgc3Ryb2tlPSJyZ2IoMCwgMCwgMCkiIGZpbGw9Im5vbmUiIGQ9Ik0gMzQuNTggNDMxLjMzIEwgMjY1LjU4IDQzMS4zMyBMIDM5MS41OCA0MzEuMzMgTCA1NDEuNTggNDMxLjMzIEwgNzk1LjU4IDQzMS4zMyIvPjxwYXRoIHN0cm9rZS1taXRlcmxpbWl0PSIxMCIgc3Ryb2tlPSJyZ2IoMCwgMCwgMCkiIGZpbGw9Im5vbmUiIGQ9Ik0gMjY1LjU4IDIxNS4zMyBMIDI2NS41OCAyNTkuMzMgTCAyNjUuNTggMzAxLjMzIEwgMjY1LjU4IDM0NS4zMyBMIDI2NS41OCAzOTAuMzMgTCAyNjUuNTggNDMxLjMzIEwgMjY1LjU4IDQ3Ni4zMyIvPjxwYXRoIHN0cm9rZS1taXRlcmxpbWl0PSIxMCIgc3Ryb2tlPSJyZ2IoMCwgMCwgMCkiIGZpbGw9Im5vbmUiIGQ9Ik0gMzkxLjU4IDIxNS4zMyBMIDM5MS41OCAyNTkuMzMgTCAzOTEuNTggMzAxLjMzIEwgMzkxLjU4IDM0NS4zMyBMIDM5MS41OCAzOTAuMzMgTCAzOTEuNTggNDMxLjMzIEwgMzkxLjU4IDQ3Ni4zMyIvPjxwYXRoIHN0cm9rZS1taXRlcmxpbWl0PSIxMCIgc3Ryb2tlPSJyZ2IoMCwgMCwgMCkiIGZpbGw9Im5vbmUiIGQ9Ik0gNTQxLjU4IDIxNS4zMyBMIDU0MS41OCAyNTkuMzMgTCA1NDEuNTggMzAxLjMzIEwgNTQxLjU4IDM0NS4zMyBMIDU0MS41OCAzOTAuMzMgTCA1NDEuNTggNDMxLjMzIEwgNTQxLjU4IDQ3Ni4zMyIvPjxyZWN0IHN0cm9rZT0ibm9uZSIgZmlsbD0ibm9uZSIgaGVpZ2h0PSI0NCIgd2lkdGg9IjIzMSIgeT0iMjE1LjMzIiB4PSIzNC41OCIvPjxwYXRoIHN0cm9rZS1taXRlcmxpbWl0PSIxMCIgc3Ryb2tlLWxpbmVjYXA9InNxdWFyZSIgc3Ryb2tlPSJyZ2IoMCwgMCwgMCkiIGZpbGw9Im5vbmUiIGQ9Ik0gMzQuNTggMjE1LjMzIE0gMjY1LjU4IDIxNS4zMyBNIDI2NS41OCAyNTkuMzMgTSAzNC41OCAyNTkuMzMiLz48cmVjdCBzdHJva2U9Im5vbmUiIGZpbGw9Im5vbmUiIGhlaWdodD0iNDQiIHdpZHRoPSIxMjYiIHk9IjIxNS4zMyIgeD0iMjY1LjU4Ii8+PHBhdGggc3Ryb2tlLW1pdGVybGltaXQ9IjEwIiBzdHJva2UtbGluZWNhcD0ic3F1YXJlIiBzdHJva2U9InJnYigwLCAwLCAwKSIgZmlsbD0ibm9uZSIgZD0iTSAyNjUuNTggMjE1LjMzIE0gMzkxLjU4IDIxNS4zMyBNIDM5MS41OCAyNTkuMzMgTSAyNjUuNTggMjU5LjMzIi8+PHJlY3Qgc3Ryb2tlPSJub25lIiBmaWxsPSJub25lIiBoZWlnaHQ9IjQ0IiB3aWR0aD0iMTUwIiB5PSIyMTUuMzMiIHg9IjM5MS41OCIvPjxwYXRoIHN0cm9rZS1taXRlcmxpbWl0PSIxMCIgc3Ryb2tlLWxpbmVjYXA9InNxdWFyZSIgc3Ryb2tlPSJyZ2IoMCwgMCwgMCkiIGZpbGw9Im5vbmUiIGQ9Ik0gMzkxLjU4IDIxNS4zMyBNIDU0MS41OCAyMTUuMzMgTSA1NDEuNTggMjU5LjMzIE0gMzkxLjU4IDI1OS4zMyIvPjxyZWN0IHN0cm9rZT0ibm9uZSIgZmlsbD0ibm9uZSIgaGVpZ2h0PSI0NCIgd2lkdGg9IjI1NCIgeT0iMjE1LjMzIiB4PSI1NDEuNTgiLz48cGF0aCBzdHJva2UtbWl0ZXJsaW1pdD0iMTAiIHN0cm9rZS1saW5lY2FwPSJzcXVhcmUiIHN0cm9rZT0icmdiKDAsIDAsIDApIiBmaWxsPSJub25lIiBkPSJNIDU0MS41OCAyMTUuMzMgTSA3OTUuNTggMjE1LjMzIE0gNzk1LjU4IDI1OS4zMyBNIDU0MS41OCAyNTkuMzMiLz48cmVjdCBzdHJva2U9Im5vbmUiIGZpbGw9Im5vbmUiIGhlaWdodD0iNDIiIHdpZHRoPSIyMzEiIHk9IjI1OS4zMyIgeD0iMzQuNTgiLz48cGF0aCBzdHJva2UtbWl0ZXJsaW1pdD0iMTAiIHN0cm9rZS1saW5lY2FwPSJzcXVhcmUiIHN0cm9rZT0icmdiKDAsIDAsIDApIiBmaWxsPSJub25lIiBkPSJNIDM0LjU4IDI1OS4zMyBNIDI2NS41OCAyNTkuMzMgTSAyNjUuNTggMzAxLjMzIE0gMzQuNTggMzAxLjMzIi8+PHJlY3Qgc3Ryb2tlPSJub25lIiBmaWxsPSJub25lIiBoZWlnaHQ9IjQyIiB3aWR0aD0iMTI2IiB5PSIyNTkuMzMiIHg9IjI2NS41OCIvPjxwYXRoIHN0cm9rZS1taXRlcmxpbWl0PSIxMCIgc3Ryb2tlLWxpbmVjYXA9InNxdWFyZSIgc3Ryb2tlPSJyZ2IoMCwgMCwgMCkiIGZpbGw9Im5vbmUiIGQ9Ik0gMjY1LjU4IDI1OS4zMyBNIDM5MS41OCAyNTkuMzMgTSAzOTEuNTggMzAxLjMzIE0gMjY1LjU4IDMwMS4zMyIvPjxyZWN0IHN0cm9rZT0ibm9uZSIgZmlsbD0ibm9uZSIgaGVpZ2h0PSI0MiIgd2lkdGg9IjE1MCIgeT0iMjU5LjMzIiB4PSIzOTEuNTgiLz48cGF0aCBzdHJva2UtbWl0ZXJsaW1pdD0iMTAiIHN0cm9rZS1saW5lY2FwPSJzcXVhcmUiIHN0cm9rZT0icmdiKDAsIDAsIDApIiBmaWxsPSJub25lIiBkPSJNIDM5MS41OCAyNTkuMzMgTSA1NDEuNTggMjU5LjMzIE0gNTQxLjU4IDMwMS4zMyBNIDM5MS41OCAzMDEuMzMiLz48cmVjdCBzdHJva2U9Im5vbmUiIGZpbGw9Im5vbmUiIGhlaWdodD0iNDIiIHdpZHRoPSIyNTQiIHk9IjI1OS4zMyIgeD0iNTQxLjU4Ii8+PHBhdGggc3Ryb2tlLW1pdGVybGltaXQ9IjEwIiBzdHJva2UtbGluZWNhcD0ic3F1YXJlIiBzdHJva2U9InJnYigwLCAwLCAwKSIgZmlsbD0ibm9uZSIgZD0iTSA1NDEuNTggMjU5LjMzIE0gNzk1LjU4IDI1OS4zMyBNIDc5NS41OCAzMDEuMzMgTSA1NDEuNTggMzAxLjMzIi8+PHJlY3Qgc3Ryb2tlPSJub25lIiBmaWxsPSJub25lIiBoZWlnaHQ9IjQ0IiB3aWR0aD0iMjMxIiB5PSIzMDEuMzMiIHg9IjM0LjU4Ii8+PHBhdGggc3Ryb2tlLW1pdGVybGltaXQ9IjEwIiBzdHJva2UtbGluZWNhcD0ic3F1YXJlIiBzdHJva2U9InJnYigwLCAwLCAwKSIgZmlsbD0ibm9uZSIgZD0iTSAzNC41OCAzMDEuMzMgTSAyNjUuNTggMzAxLjMzIE0gMjY1LjU4IDM0NS4zMyBNIDM0LjU4IDM0NS4zMyIvPjxyZWN0IHN0cm9rZT0ibm9uZSIgZmlsbD0ibm9uZSIgaGVpZ2h0PSI0NCIgd2lkdGg9IjEyNiIgeT0iMzAxLjMzIiB4PSIyNjUuNTgiLz48cGF0aCBzdHJva2UtbWl0ZXJsaW1pdD0iMTAiIHN0cm9rZS1saW5lY2FwPSJzcXVhcmUiIHN0cm9rZT0icmdiKDAsIDAsIDApIiBmaWxsPSJub25lIiBkPSJNIDI2NS41OCAzMDEuMzMgTSAzOTEuNTggMzAxLjMzIE0gMzkxLjU4IDM0NS4zMyBNIDI2NS41OCAzNDUuMzMiLz48cmVjdCBzdHJva2U9Im5vbmUiIGZpbGw9Im5vbmUiIGhlaWdodD0iNDQiIHdpZHRoPSIxNTAiIHk9IjMwMS4zMyIgeD0iMzkxLjU4Ii8+PHBhdGggc3Ryb2tlLW1pdGVybGltaXQ9IjEwIiBzdHJva2UtbGluZWNhcD0ic3F1YXJlIiBzdHJva2U9InJnYigwLCAwLCAwKSIgZmlsbD0ibm9uZSIgZD0iTSAzOTEuNTggMzAxLjMzIE0gNTQxLjU4IDMwMS4zMyBNIDU0MS41OCAzNDUuMzMgTSAzOTEuNTggMzQ1LjMzIi8+PHJlY3Qgc3Ryb2tlPSJub25lIiBmaWxsPSJub25lIiBoZWlnaHQ9IjQ0IiB3aWR0aD0iMjU0IiB5PSIzMDEuMzMiIHg9IjU0MS41OCIvPjxwYXRoIHN0cm9rZS1taXRlcmxpbWl0PSIxMCIgc3Ryb2tlLWxpbmVjYXA9InNxdWFyZSIgc3Ryb2tlPSJyZ2IoMCwgMCwgMCkiIGZpbGw9Im5vbmUiIGQ9Ik0gNTQxLjU4IDMwMS4zMyBNIDc5NS41OCAzMDEuMzMgTSA3OTUuNTggMzQ1LjMzIE0gNTQxLjU4IDM0NS4zMyIvPjxyZWN0IHN0cm9rZT0ibm9uZSIgZmlsbD0ibm9uZSIgaGVpZ2h0PSI0NSIgd2lkdGg9IjIzMSIgeT0iMzQ1LjMzIiB4PSIzNC41OCIvPjxwYXRoIHN0cm9rZS1taXRlcmxpbWl0PSIxMCIgc3Ryb2tlLWxpbmVjYXA9InNxdWFyZSIgc3Ryb2tlPSJyZ2IoMCwgMCwgMCkiIGZpbGw9Im5vbmUiIGQ9Ik0gMzQuNTggMzQ1LjMzIE0gMjY1LjU4IDM0NS4zMyBNIDI2NS41OCAzOTAuMzMgTSAzNC41OCAzOTAuMzMiLz48cmVjdCBzdHJva2U9Im5vbmUiIGZpbGw9Im5vbmUiIGhlaWdodD0iNDUiIHdpZHRoPSIxMjYiIHk9IjM0NS4zMyIgeD0iMjY1LjU4Ii8+PHBhdGggc3Ryb2tlLW1pdGVybGltaXQ9IjEwIiBzdHJva2UtbGluZWNhcD0ic3F1YXJlIiBzdHJva2U9InJnYigwLCAwLCAwKSIgZmlsbD0ibm9uZSIgZD0iTSAyNjUuNTggMzQ1LjMzIE0gMzkxLjU4IDM0NS4zMyBNIDM5MS41OCAzOTAuMzMgTSAyNjUuNTggMzkwLjMzIi8+PHJlY3Qgc3Ryb2tlPSJub25lIiBmaWxsPSJub25lIiBoZWlnaHQ9IjQ1IiB3aWR0aD0iMTUwIiB5PSIzNDUuMzMiIHg9IjM5MS41OCIvPjxwYXRoIHN0cm9rZS1taXRlcmxpbWl0PSIxMCIgc3Ryb2tlLWxpbmVjYXA9InNxdWFyZSIgc3Ryb2tlPSJyZ2IoMCwgMCwgMCkiIGZpbGw9Im5vbmUiIGQ9Ik0gMzkxLjU4IDM0NS4zMyBNIDU0MS41OCAzNDUuMzMgTSA1NDEuNTggMzkwLjMzIE0gMzkxLjU4IDM5MC4zMyIvPjxyZWN0IHN0cm9rZT0ibm9uZSIgZmlsbD0ibm9uZSIgaGVpZ2h0PSI0NSIgd2lkdGg9IjI1NCIgeT0iMzQ1LjMzIiB4PSI1NDEuNTgiLz48cGF0aCBzdHJva2UtbWl0ZXJsaW1pdD0iMTAiIHN0cm9rZS1saW5lY2FwPSJzcXVhcmUiIHN0cm9rZT0icmdiKDAsIDAsIDApIiBmaWxsPSJub25lIiBkPSJNIDU0MS41OCAzNDUuMzMgTSA3OTUuNTggMzQ1LjMzIE0gNzk1LjU4IDM5MC4zMyBNIDU0MS41OCAzOTAuMzMiLz48cmVjdCBzdHJva2U9Im5vbmUiIGZpbGw9Im5vbmUiIGhlaWdodD0iNDEiIHdpZHRoPSIyMzEiIHk9IjM5MC4zMyIgeD0iMzQuNTgiLz48cGF0aCBzdHJva2UtbWl0ZXJsaW1pdD0iMTAiIHN0cm9rZS1saW5lY2FwPSJzcXVhcmUiIHN0cm9rZT0icmdiKDAsIDAsIDApIiBmaWxsPSJub25lIiBkPSJNIDM0LjU4IDM5MC4zMyBNIDI2NS41OCAzOTAuMzMgTSAyNjUuNTggNDMxLjMzIE0gMzQuNTggNDMxLjMzIi8+PHJlY3Qgc3Ryb2tlPSJub25lIiBmaWxsPSJub25lIiBoZWlnaHQ9IjQxIiB3aWR0aD0iMTI2IiB5PSIzOTAuMzMiIHg9IjI2NS41OCIvPjxwYXRoIHN0cm9rZS1taXRlcmxpbWl0PSIxMCIgc3Ryb2tlLWxpbmVjYXA9InNxdWFyZSIgc3Ryb2tlPSJyZ2IoMCwgMCwgMCkiIGZpbGw9Im5vbmUiIGQ9Ik0gMjY1LjU4IDM5MC4zMyBNIDM5MS41OCAzOTAuMzMgTSAzOTEuNTggNDMxLjMzIE0gMjY1LjU4IDQzMS4zMyIvPjxyZWN0IHN0cm9rZT0ibm9uZSIgZmlsbD0ibm9uZSIgaGVpZ2h0PSI0MSIgd2lkdGg9IjE1MCIgeT0iMzkwLjMzIiB4PSIzOTEuNTgiLz48cGF0aCBzdHJva2UtbWl0ZXJsaW1pdD0iMTAiIHN0cm9rZS1saW5lY2FwPSJzcXVhcmUiIHN0cm9rZT0icmdiKDAsIDAsIDApIiBmaWxsPSJub25lIiBkPSJNIDM5MS41OCAzOTAuMzMgTSA1NDEuNTggMzkwLjMzIE0gNTQxLjU4IDQzMS4zMyBNIDM5MS41OCA0MzEuMzMiLz48cmVjdCBzdHJva2U9Im5vbmUiIGZpbGw9Im5vbmUiIGhlaWdodD0iNDEiIHdpZHRoPSIyNTQiIHk9IjM5MC4zMyIgeD0iNTQxLjU4Ii8+PHBhdGggc3Ryb2tlLW1pdGVybGltaXQ9IjEwIiBzdHJva2UtbGluZWNhcD0ic3F1YXJlIiBzdHJva2U9InJnYigwLCAwLCAwKSIgZmlsbD0ibm9uZSIgZD0iTSA1NDEuNTggMzkwLjMzIE0gNzk1LjU4IDM5MC4zMyBNIDc5NS41OCA0MzEuMzMgTSA1NDEuNTggNDMxLjMzIi8+PHJlY3Qgc3Ryb2tlPSJub25lIiBmaWxsPSJub25lIiBoZWlnaHQ9IjQ1IiB3aWR0aD0iMjMxIiB5PSI0MzEuMzMiIHg9IjM0LjU4Ii8+PHBhdGggc3Ryb2tlLW1pdGVybGltaXQ9IjEwIiBzdHJva2UtbGluZWNhcD0ic3F1YXJlIiBzdHJva2U9InJnYigwLCAwLCAwKSIgZmlsbD0ibm9uZSIgZD0iTSAzNC41OCA0MzEuMzMgTSAyNjUuNTggNDMxLjMzIE0gMjY1LjU4IDQ3Ni4zMyBNIDM0LjU4IDQ3Ni4zMyIvPjxyZWN0IHN0cm9rZT0ibm9uZSIgZmlsbD0ibm9uZSIgaGVpZ2h0PSI0NSIgd2lkdGg9IjEyNiIgeT0iNDMxLjMzIiB4PSIyNjUuNTgiLz48cGF0aCBzdHJva2UtbWl0ZXJsaW1pdD0iMTAiIHN0cm9rZS1saW5lY2FwPSJzcXVhcmUiIHN0cm9rZT0icmdiKDAsIDAsIDApIiBmaWxsPSJub25lIiBkPSJNIDI2NS41OCA0MzEuMzMgTSAzOTEuNTggNDMxLjMzIE0gMzkxLjU4IDQ3Ni4zMyBNIDI2NS41OCA0NzYuMzMiLz48cmVjdCBzdHJva2U9Im5vbmUiIGZpbGw9Im5vbmUiIGhlaWdodD0iNDUiIHdpZHRoPSIxNTAiIHk9IjQzMS4zMyIgeD0iMzkxLjU4Ii8+PHBhdGggc3Ryb2tlLW1pdGVybGltaXQ9IjEwIiBzdHJva2UtbGluZWNhcD0ic3F1YXJlIiBzdHJva2U9InJnYigwLCAwLCAwKSIgZmlsbD0ibm9uZSIgZD0iTSAzOTEuNTggNDMxLjMzIE0gNTQxLjU4IDQzMS4zMyBNIDU0MS41OCA0NzYuMzMgTSAzOTEuNTggNDc2LjMzIi8+PHJlY3Qgc3Ryb2tlPSJub25lIiBmaWxsPSJub25lIiBoZWlnaHQ9IjQ1IiB3aWR0aD0iMjU0IiB5PSI0MzEuMzMiIHg9IjU0MS41OCIvPjxwYXRoIHN0cm9rZS1taXRlcmxpbWl0PSIxMCIgc3Ryb2tlLWxpbmVjYXA9InNxdWFyZSIgc3Ryb2tlPSJyZ2IoMCwgMCwgMCkiIGZpbGw9Im5vbmUiIGQ9Ik0gNTQxLjU4IDQzMS4zMyBNIDc5NS41OCA0MzEuMzMgTSA3OTUuNTggNDc2LjMzIE0gNTQxLjU4IDQ3Ni4zMyIvPjxyZWN0IHN0cm9rZT0iIzk5OTk5OSIgZmlsbD0iI2ZmZmZmZiIgcnk9IjUiIHJ4PSI1IiBoZWlnaHQ9IjM0IiB3aWR0aD0iMTcyLjkyIiB5PSIxNTguNjciIHg9IjEwMy43NSIvPjxwYXRoIHN0cm9rZS1taXRlcmxpbWl0PSIxMCIgc3Ryb2tlPSIjOTk5OTk5IiBmaWxsPSJ1cmwoI214LWdyYWRpZW50LWRkZWVmZi0xLWFhZGRmZi0xLXMtMCkiIGQ9Ik0gMjQ2LjY3IDE1OC42NyBMIDI3MS42NyAxNTguNjcgQyAyNzQuNDMgMTU4LjY3IDI3Ni42NyAxNjAuOTEgMjc2LjY3IDE2My42NyBMIDI3Ni42NyAxODcuNjcgQyAyNzYuNjcgMTkwLjQzIDI3NC40MyAxOTIuNjcgMjcxLjY3IDE5Mi42NyBMIDI0Ni42NyAxOTIuNjcgWiIvPjxwYXRoIHN0cm9rZT0ibm9uZSIgZmlsbD0iI2ZmZmZmZiIgZD0iTSAyNTQuNjcgMTcwLjY3IEwgMjYxLjY3IDE4MC42NyBMIDI2OC42NyAxNzAuNjciLz48ZyBmb250LXNpemU9IjE3cHgiIGZvbnQtZmFtaWx5PSJBcmlhbCxIZWx2ZXRpY2EiIGZpbGw9IiM2NjY2NjYiLz48cmVjdCBzdHJva2U9IiM5OTk5OTkiIGZpbGw9IiNmZmZmZmYiIHJ5PSI1IiByeD0iNSIgaGVpZ2h0PSIzNCIgd2lkdGg9IjE3Mi45MiIgeT0iMTU4LjY3IiB4PSIzMjIuNzgiLz48cGF0aCBzdHJva2UtbWl0ZXJsaW1pdD0iMTAiIHN0cm9rZT0iIzk5OTk5OSIgZmlsbD0idXJsKCNteC1ncmFkaWVudC1kZGVlZmYtMS1hYWRkZmYtMS1zLTApIiBkPSJNIDQ2NS42OSAxNTguNjcgTCA0OTAuNjkgMTU4LjY3IEMgNDkzLjQ2IDE1OC42NyA0OTUuNjkgMTYwLjkxIDQ5NS42OSAxNjMuNjcgTCA0OTUuNjkgMTg3LjY3IEMgNDk1LjY5IDE5MC40MyA0OTMuNDYgMTkyLjY3IDQ5MC42OSAxOTIuNjcgTCA0NjUuNjkgMTkyLjY3IFoiLz48cGF0aCBzdHJva2U9Im5vbmUiIGZpbGw9IiNmZmZmZmYiIGQ9Ik0gNDczLjY5IDE3MC42NyBMIDQ4MC42OSAxODAuNjcgTCA0ODcuNjkgMTcwLjY3Ii8+PGcgZm9udC1zaXplPSIxN3B4IiBmb250LWZhbWlseT0iQXJpYWwsSGVsdmV0aWNhIiBmaWxsPSIjNjY2NjY2Ii8+PHJlY3Qgc3Ryb2tlPSIjZDZiNjU2IiBmaWxsPSIjZmZmMmNjIiByeT0iNi44IiByeD0iNi44IiBoZWlnaHQ9IjQ1LjMzIiB3aWR0aD0iNzYwLjgzIiB5PSI5MC42NyIgeD0iMzQuNTgiLz48cGF0aCBzdHJva2UtbWl0ZXJsaW1pdD0iMTAiIHN0cm9rZT0iI2I4NTQ1MCIgZmlsbD0iI2Y4Y2VjYyIgZD0iTSA2MzQuMDMgMTA2LjMzIEMgNjM0LjAzIDEwMC44MSA2MzguNSA5Ni4zMyA2NDQuMDMgOTYuMzMgTCA3NzMuODkgOTYuMzMgQyA3NzkuNDEgOTYuMzMgNzgzLjg5IDEwMC44MSA3ODMuODkgMTA2LjMzIEwgNzgzLjg5IDEyMC4zMyBDIDc4My44OSAxMjUuODYgNzc5LjQxIDEzMC4zMyA3NzMuODkgMTMwLjMzIEwgNjQ0LjAzIDEzMC4zMyBDIDYzOC41IDEzMC4zMyA2MzQuMDMgMTI1Ljg2IDYzNC4wMyAxMjAuMzMgWiIvPjxnIGZvbnQtc2l6ZT0iMTdweCIgdGV4dC1hbmNob3I9Im1pZGRsZSIgZm9udC13ZWlnaHQ9ImJvbGQiIGZvbnQtZmFtaWx5PSJBcmlhbCxIZWx2ZXRpY2EiIGZpbGw9IiM2NjY2NjYiLz48L2c+PC9zdmc+;" parent="1" vertex="1">
          <mxGeometry x="423" y="226" width="97.5" height="60" as="geometry" />
        </mxCell>
        <mxCell id="OOJ0rVYJN1lUEFXnlSiB-14" style="edgeStyle=orthogonalEdgeStyle;rounded=0;orthogonalLoop=1;jettySize=auto;html=1;entryX=0.5;entryY=0;entryDx=0;entryDy=0;" parent="1" source="OOJ0rVYJN1lUEFXnlSiB-15" target="OOJ0rVYJN1lUEFXnlSiB-24" edge="1">
          <mxGeometry relative="1" as="geometry" />
        </mxCell>
        <mxCell id="OOJ0rVYJN1lUEFXnlSiB-15" value="Interview transcripts" style="shape=note;whiteSpace=wrap;html=1;backgroundOutline=1;darkOpacity=0.05;size=16;" parent="1" vertex="1">
          <mxGeometry x="490" y="530" width="120" height="60" as="geometry" />
        </mxCell>
        <mxCell id="OOJ0rVYJN1lUEFXnlSiB-16" value="Interview guidelines" style="shape=note;whiteSpace=wrap;html=1;backgroundOutline=1;darkOpacity=0.05;size=16;" parent="1" vertex="1">
          <mxGeometry x="575" y="222" width="120" height="60" as="geometry" />
        </mxCell>
        <mxCell id="OOJ0rVYJN1lUEFXnlSiB-17" style="edgeStyle=orthogonalEdgeStyle;rounded=0;orthogonalLoop=1;jettySize=auto;html=1;entryX=0;entryY=0.5;entryDx=0;entryDy=0;" parent="1" source="OOJ0rVYJN1lUEFXnlSiB-18" target="OOJ0rVYJN1lUEFXnlSiB-6" edge="1">
          <mxGeometry relative="1" as="geometry" />
        </mxCell>
        <mxCell id="OOJ0rVYJN1lUEFXnlSiB-18" value="Related work" style="shape=note;whiteSpace=wrap;html=1;backgroundOutline=1;darkOpacity=0.05;size=16;" parent="1" vertex="1">
          <mxGeometry x="70" y="100" width="140" height="60" as="geometry" />
        </mxCell>
        <mxCell id="OOJ0rVYJN1lUEFXnlSiB-19" value="SUS questionnaire" style="shape=note;whiteSpace=wrap;html=1;backgroundOutline=1;darkOpacity=0.05;size=16;" parent="1" vertex="1">
          <mxGeometry x="720" y="222" width="120" height="60" as="geometry" />
        </mxCell>
        <mxCell id="OOJ0rVYJN1lUEFXnlSiB-20" style="edgeStyle=orthogonalEdgeStyle;rounded=0;orthogonalLoop=1;jettySize=auto;html=1;" parent="1" source="OOJ0rVYJN1lUEFXnlSiB-21" target="OOJ0rVYJN1lUEFXnlSiB-33" edge="1">
          <mxGeometry relative="1" as="geometry" />
        </mxCell>
        <mxCell id="OOJ0rVYJN1lUEFXnlSiB-21" value="SUS questionnaire results" style="shape=note;whiteSpace=wrap;html=1;backgroundOutline=1;darkOpacity=0.05;size=16;" parent="1" vertex="1">
          <mxGeometry x="695" y="530" width="120" height="60" as="geometry" />
        </mxCell>
        <mxCell id="OOJ0rVYJN1lUEFXnlSiB-22" style="edgeStyle=orthogonalEdgeStyle;rounded=0;orthogonalLoop=1;jettySize=auto;html=1;entryX=0.5;entryY=0;entryDx=0;entryDy=0;entryPerimeter=0;" parent="1" source="OOJ0rVYJN1lUEFXnlSiB-19" target="OOJ0rVYJN1lUEFXnlSiB-2" edge="1">
          <mxGeometry relative="1" as="geometry">
            <Array as="points">
              <mxPoint x="780" y="346" />
              <mxPoint x="635" y="346" />
            </Array>
          </mxGeometry>
        </mxCell>
        <mxCell id="OOJ0rVYJN1lUEFXnlSiB-23" style="edgeStyle=orthogonalEdgeStyle;rounded=0;orthogonalLoop=1;jettySize=auto;html=1;entryX=0.5;entryY=0;entryDx=0;entryDy=0;" parent="1" source="OOJ0rVYJN1lUEFXnlSiB-24" target="OOJ0rVYJN1lUEFXnlSiB-26" edge="1">
          <mxGeometry relative="1" as="geometry" />
        </mxCell>
        <mxCell id="OOJ0rVYJN1lUEFXnlSiB-24" value="Open coding" style="rounded=0;whiteSpace=wrap;html=1;" parent="1" vertex="1">
          <mxGeometry x="560.01" y="640" width="120" height="60" as="geometry" />
        </mxCell>
        <mxCell id="OOJ0rVYJN1lUEFXnlSiB-25" style="edgeStyle=orthogonalEdgeStyle;rounded=0;orthogonalLoop=1;jettySize=auto;html=1;" parent="1" source="OOJ0rVYJN1lUEFXnlSiB-26" target="OOJ0rVYJN1lUEFXnlSiB-29" edge="1">
          <mxGeometry relative="1" as="geometry" />
        </mxCell>
        <mxCell id="OOJ0rVYJN1lUEFXnlSiB-26" value="Axial coding" style="rounded=0;whiteSpace=wrap;html=1;" parent="1" vertex="1">
          <mxGeometry x="560.01" y="740" width="120" height="60" as="geometry" />
        </mxCell>
        <mxCell id="OOJ0rVYJN1lUEFXnlSiB-27" value="Participants&#39;&lt;br&gt;suggestions" style="shape=note;whiteSpace=wrap;html=1;backgroundOutline=1;darkOpacity=0.05;size=16;" parent="1" vertex="1">
          <mxGeometry x="425" y="840" width="120" height="60" as="geometry" />
        </mxCell>
        <mxCell id="OOJ0rVYJN1lUEFXnlSiB-28" style="edgeStyle=orthogonalEdgeStyle;rounded=0;orthogonalLoop=1;jettySize=auto;html=1;entryX=0.5;entryY=0;entryDx=0;entryDy=0;entryPerimeter=0;" parent="1" source="OOJ0rVYJN1lUEFXnlSiB-2" target="OOJ0rVYJN1lUEFXnlSiB-15" edge="1">
          <mxGeometry relative="1" as="geometry" />
        </mxCell>
        <mxCell id="OOJ0rVYJN1lUEFXnlSiB-29" value="Themes and codes" style="shape=note;whiteSpace=wrap;html=1;backgroundOutline=1;darkOpacity=0.05;size=16;" parent="1" vertex="1">
          <mxGeometry x="560.01" y="840" width="120" height="60" as="geometry" />
        </mxCell>
        <mxCell id="OOJ0rVYJN1lUEFXnlSiB-30" style="edgeStyle=orthogonalEdgeStyle;rounded=0;orthogonalLoop=1;jettySize=auto;html=1;entryX=0.5;entryY=0;entryDx=0;entryDy=0;entryPerimeter=0;" parent="1" source="OOJ0rVYJN1lUEFXnlSiB-15" target="OOJ0rVYJN1lUEFXnlSiB-27" edge="1">
          <mxGeometry relative="1" as="geometry">
            <Array as="points">
              <mxPoint x="550" y="615" />
              <mxPoint x="485" y="615" />
            </Array>
          </mxGeometry>
        </mxCell>
        <mxCell id="OOJ0rVYJN1lUEFXnlSiB-31" style="edgeStyle=orthogonalEdgeStyle;rounded=0;orthogonalLoop=1;jettySize=auto;html=1;entryX=0.5;entryY=0;entryDx=0;entryDy=0;entryPerimeter=0;" parent="1" source="OOJ0rVYJN1lUEFXnlSiB-16" target="OOJ0rVYJN1lUEFXnlSiB-2" edge="1">
          <mxGeometry relative="1" as="geometry" />
        </mxCell>
        <mxCell id="OOJ0rVYJN1lUEFXnlSiB-32" value="Interviews" style="edgeLabel;html=1;align=center;verticalAlign=middle;resizable=0;points=[];" parent="OOJ0rVYJN1lUEFXnlSiB-31" vertex="1" connectable="0">
          <mxGeometry x="0.3871" y="1" relative="1" as="geometry">
            <mxPoint x="-1" as="offset" />
          </mxGeometry>
        </mxCell>
        <mxCell id="OOJ0rVYJN1lUEFXnlSiB-33" value="Usability results" style="shape=note;whiteSpace=wrap;html=1;backgroundOutline=1;darkOpacity=0.05;size=16;" parent="1" vertex="1">
          <mxGeometry x="695" y="840" width="120" height="60" as="geometry" />
        </mxCell>
      </root>
    </mxGraphModel>
  </diagram>
  <diagram id="512msaSpTutcmT29Nr7L" name="Prototype development and evaluation">
    <mxGraphModel dx="178" dy="523" grid="1" gridSize="10" guides="1" tooltips="1" connect="1" arrows="1" fold="1" page="1" pageScale="1" pageWidth="850" pageHeight="1100" math="0" shadow="0">
      <root>
        <mxCell id="0" />
        <mxCell id="1" parent="0" />
        <mxCell id="1HjG3uotYe_h-KVPdPKy-2" style="edgeStyle=orthogonalEdgeStyle;rounded=0;orthogonalLoop=1;jettySize=auto;html=1;entryX=0.5;entryY=0;entryDx=0;entryDy=0;" parent="1" source="1HjG3uotYe_h-KVPdPKy-7" target="1HjG3uotYe_h-KVPdPKy-11" edge="1">
          <mxGeometry relative="1" as="geometry">
            <Array as="points">
              <mxPoint x="460" y="650" />
              <mxPoint x="180" y="650" />
            </Array>
          </mxGeometry>
        </mxCell>
        <mxCell id="1HjG3uotYe_h-KVPdPKy-3" style="edgeStyle=orthogonalEdgeStyle;rounded=0;orthogonalLoop=1;jettySize=auto;html=1;" parent="1" source="1HjG3uotYe_h-KVPdPKy-7" target="1HjG3uotYe_h-KVPdPKy-13" edge="1">
          <mxGeometry relative="1" as="geometry">
            <Array as="points">
              <mxPoint x="460" y="650" />
              <mxPoint x="320" y="650" />
            </Array>
          </mxGeometry>
        </mxCell>
        <mxCell id="1HjG3uotYe_h-KVPdPKy-4" style="edgeStyle=orthogonalEdgeStyle;rounded=0;orthogonalLoop=1;jettySize=auto;html=1;entryX=0.5;entryY=0;entryDx=0;entryDy=0;" parent="1" source="1HjG3uotYe_h-KVPdPKy-7" target="1HjG3uotYe_h-KVPdPKy-15" edge="1">
          <mxGeometry relative="1" as="geometry" />
        </mxCell>
        <mxCell id="1HjG3uotYe_h-KVPdPKy-5" style="edgeStyle=orthogonalEdgeStyle;rounded=0;orthogonalLoop=1;jettySize=auto;html=1;entryX=0.5;entryY=0;entryDx=0;entryDy=0;" parent="1" source="1HjG3uotYe_h-KVPdPKy-7" target="1HjG3uotYe_h-KVPdPKy-19" edge="1">
          <mxGeometry relative="1" as="geometry">
            <Array as="points">
              <mxPoint x="460" y="650" />
              <mxPoint x="600" y="650" />
            </Array>
          </mxGeometry>
        </mxCell>
        <mxCell id="1HjG3uotYe_h-KVPdPKy-6" style="edgeStyle=orthogonalEdgeStyle;rounded=0;orthogonalLoop=1;jettySize=auto;html=1;" parent="1" source="1HjG3uotYe_h-KVPdPKy-7" target="1HjG3uotYe_h-KVPdPKy-24" edge="1">
          <mxGeometry relative="1" as="geometry">
            <Array as="points">
              <mxPoint x="460" y="650" />
              <mxPoint x="740" y="650" />
            </Array>
          </mxGeometry>
        </mxCell>
        <mxCell id="1HjG3uotYe_h-KVPdPKy-7" value="Identify technical challenges" style="rounded=0;whiteSpace=wrap;html=1;" parent="1" vertex="1">
          <mxGeometry x="400" y="560" width="120" height="60" as="geometry" />
        </mxCell>
        <mxCell id="1HjG3uotYe_h-KVPdPKy-10" style="edgeStyle=orthogonalEdgeStyle;rounded=0;orthogonalLoop=1;jettySize=auto;html=1;entryX=0.5;entryY=0;entryDx=0;entryDy=0;" parent="1" source="1HjG3uotYe_h-KVPdPKy-11" target="1HjG3uotYe_h-KVPdPKy-17" edge="1">
          <mxGeometry relative="1" as="geometry">
            <Array as="points">
              <mxPoint x="180" y="770" />
              <mxPoint x="460" y="770" />
              <mxPoint x="460" y="810" />
              <mxPoint x="227" y="810" />
            </Array>
          </mxGeometry>
        </mxCell>
        <mxCell id="1HjG3uotYe_h-KVPdPKy-11" value="Collecting dependency information (SBOM)" style="rounded=0;whiteSpace=wrap;html=1;" parent="1" vertex="1">
          <mxGeometry x="120.01" y="680" width="120" height="60" as="geometry" />
        </mxCell>
        <mxCell id="1HjG3uotYe_h-KVPdPKy-12" style="edgeStyle=orthogonalEdgeStyle;rounded=0;orthogonalLoop=1;jettySize=auto;html=1;entryX=0.5;entryY=0;entryDx=0;entryDy=0;" parent="1" source="1HjG3uotYe_h-KVPdPKy-13" target="1HjG3uotYe_h-KVPdPKy-17" edge="1">
          <mxGeometry relative="1" as="geometry">
            <Array as="points">
              <mxPoint x="320" y="770" />
              <mxPoint x="460" y="770" />
              <mxPoint x="460" y="810" />
              <mxPoint x="227" y="810" />
            </Array>
          </mxGeometry>
        </mxCell>
        <mxCell id="1HjG3uotYe_h-KVPdPKy-13" value="Implementing instrumentation agent" style="rounded=0;whiteSpace=wrap;html=1;" parent="1" vertex="1">
          <mxGeometry x="260.02" y="680" width="120" height="60" as="geometry" />
        </mxCell>
        <mxCell id="1HjG3uotYe_h-KVPdPKy-14" style="edgeStyle=orthogonalEdgeStyle;rounded=0;orthogonalLoop=1;jettySize=auto;html=1;entryX=0.5;entryY=0;entryDx=0;entryDy=0;" parent="1" source="1HjG3uotYe_h-KVPdPKy-15" target="1HjG3uotYe_h-KVPdPKy-17" edge="1">
          <mxGeometry relative="1" as="geometry">
            <Array as="points">
              <mxPoint x="460" y="810" />
              <mxPoint x="227" y="810" />
            </Array>
          </mxGeometry>
        </mxCell>
        <mxCell id="1HjG3uotYe_h-KVPdPKy-15" value="Extending telemetry signals" style="rounded=0;whiteSpace=wrap;html=1;" parent="1" vertex="1">
          <mxGeometry x="400.01" y="680" width="120" height="60" as="geometry" />
        </mxCell>
        <mxCell id="1HjG3uotYe_h-KVPdPKy-17" value="Working prototype" style="shape=image;imageAspect=0;aspect=fixed;verticalLabelPosition=bottom;verticalAlign=top;image=data:image/svg+xml,PHN2ZyB4bWxuczp4bGluaz0iaHR0cDovL3d3dy53My5vcmcvMTk5OS94bGluayIgeG1sbnM9Imh0dHA6Ly93d3cudzMub3JnLzIwMDAvc3ZnIiB2aWV3Qm94PSItMC41IC0wLjUgODMxIDUxMSIgaGVpZ2h0PSI1MTFweCIgd2lkdGg9IjgzMXB4IiB2ZXJzaW9uPSIxLjEiPjxkZWZzPjxsaW5lYXJHcmFkaWVudCBpZD0ibXgtZ3JhZGllbnQtZGRlZWZmLTEtYWFkZGZmLTEtcy0wIiB5Mj0iMTAwJSIgeDI9IjAlIiB5MT0iMCUiIHgxPSIwJSI+PHN0b3Agc3R5bGU9InN0b3AtY29sb3I6IHJnYigyMjEsIDIzOCwgMjU1KTsgc3RvcC1vcGFjaXR5OiAxOyIgb2Zmc2V0PSIwJSIvPjxzdG9wIHN0eWxlPSJzdG9wLWNvbG9yOiByZ2IoMTcwLCAyMjEsIDI1NSk7IHN0b3Atb3BhY2l0eTogMTsiIG9mZnNldD0iMTAwJSIvPjwvbGluZWFyR3JhZGllbnQ+PC9kZWZzPjxnPjxyZWN0IHN0cm9rZT0icmdiKDAsIDAsIDApIiBmaWxsPSJub25lIiBoZWlnaHQ9IjUxMCIgd2lkdGg9IjgzMCIgeT0iMCIgeD0iMCIvPjxyZWN0IHN0cm9rZT0iI2Q2YjY1NiIgZmlsbD0iI2ZmZjJjYyIgcnk9IjYuOCIgcng9IjYuOCIgaGVpZ2h0PSI0NS4zMyIgd2lkdGg9Ijc2MC44MyIgeT0iMzQiIHg9IjM0LjU4Ii8+PHBhdGggc3Ryb2tlLW1pdGVybGltaXQ9IjEwIiBzdHJva2U9IiNiODU0NTAiIGZpbGw9IiNmOGNlY2MiIGQ9Ik0gNjM0LjAzIDQ5LjY3IEMgNjM0LjAzIDQ0LjE0IDYzOC41IDM5LjY3IDY0NC4wMyAzOS42NyBMIDc3My44OSAzOS42NyBDIDc3OS40MSAzOS42NyA3ODMuODkgNDQuMTQgNzgzLjg5IDQ5LjY3IEwgNzgzLjg5IDYzLjY3IEMgNzgzLjg5IDY5LjE5IDc3OS40MSA3My42NyA3NzMuODkgNzMuNjcgTCA2NDQuMDMgNzMuNjcgQyA2MzguNSA3My42NyA2MzQuMDMgNjkuMTkgNjM0LjAzIDYzLjY3IFoiLz48ZyBmb250LXNpemU9IjE3cHgiIHRleHQtYW5jaG9yPSJtaWRkbGUiIGZvbnQtd2VpZ2h0PSJib2xkIiBmb250LWZhbWlseT0iQXJpYWwsSGVsdmV0aWNhIiBmaWxsPSIjNjY2NjY2Ii8+PHJlY3Qgc3Ryb2tlPSJub25lIiBmaWxsPSJyZ2IoMjU1LCAyNTUsIDI1NSkiIGhlaWdodD0iMjYwLjY3IiB3aWR0aD0iNzYwLjgzIiB5PSIyMTUuMzMiIHg9IjM0LjU4Ii8+PHBhdGggc3Ryb2tlLW1pdGVybGltaXQ9IjEwIiBzdHJva2UtbGluZWNhcD0ic3F1YXJlIiBzdHJva2U9InJnYigwLCAwLCAwKSIgZmlsbD0ibm9uZSIgZD0iTSAzNC41OCAyMTUuMzMgTCA3OTUuNDIgMjE1LjMzIEwgNzk1LjQyIDQ3NiBMIDM0LjU4IDQ3NiBMIDM0LjU4IDIxNS4zMyIvPjxwYXRoIHN0cm9rZS1taXRlcmxpbWl0PSIxMCIgc3Ryb2tlPSJyZ2IoMCwgMCwgMCkiIGZpbGw9Im5vbmUiIGQ9Ik0gMzQuNTggMjU5LjMzIEwgMjY1LjU4IDI1OS4zMyBMIDM5MS41OCAyNTkuMzMgTCA1NDEuNTggMjU5LjMzIEwgNzk1LjU4IDI1OS4zMyIvPjxwYXRoIHN0cm9rZS1taXRlcmxpbWl0PSIxMCIgc3Ryb2tlPSJyZ2IoMCwgMCwgMCkiIGZpbGw9Im5vbmUiIGQ9Ik0gMzQuNTggMzAxLjMzIEwgMjY1LjU4IDMwMS4zMyBMIDM5MS41OCAzMDEuMzMgTCA1NDEuNTggMzAxLjMzIEwgNzk1LjU4IDMwMS4zMyIvPjxwYXRoIHN0cm9rZS1taXRlcmxpbWl0PSIxMCIgc3Ryb2tlPSJyZ2IoMCwgMCwgMCkiIGZpbGw9Im5vbmUiIGQ9Ik0gMzQuNTggMzQ1LjMzIEwgMjY1LjU4IDM0NS4zMyBMIDM5MS41OCAzNDUuMzMgTCA1NDEuNTggMzQ1LjMzIEwgNzk1LjU4IDM0NS4zMyIvPjxwYXRoIHN0cm9rZS1taXRlcmxpbWl0PSIxMCIgc3Ryb2tlPSJyZ2IoMCwgMCwgMCkiIGZpbGw9Im5vbmUiIGQ9Ik0gMzQuNTggMzkwLjMzIEwgMjY1LjU4IDM5MC4zMyBMIDM5MS41OCAzOTAuMzMgTCA1NDEuNTggMzkwLjMzIEwgNzk1LjU4IDM5MC4zMyIvPjxwYXRoIHN0cm9rZS1taXRlcmxpbWl0PSIxMCIgc3Ryb2tlPSJyZ2IoMCwgMCwgMCkiIGZpbGw9Im5vbmUiIGQ9Ik0gMzQuNTggNDMxLjMzIEwgMjY1LjU4IDQzMS4zMyBMIDM5MS41OCA0MzEuMzMgTCA1NDEuNTggNDMxLjMzIEwgNzk1LjU4IDQzMS4zMyIvPjxwYXRoIHN0cm9rZS1taXRlcmxpbWl0PSIxMCIgc3Ryb2tlPSJyZ2IoMCwgMCwgMCkiIGZpbGw9Im5vbmUiIGQ9Ik0gMjY1LjU4IDIxNS4zMyBMIDI2NS41OCAyNTkuMzMgTCAyNjUuNTggMzAxLjMzIEwgMjY1LjU4IDM0NS4zMyBMIDI2NS41OCAzOTAuMzMgTCAyNjUuNTggNDMxLjMzIEwgMjY1LjU4IDQ3Ni4zMyIvPjxwYXRoIHN0cm9rZS1taXRlcmxpbWl0PSIxMCIgc3Ryb2tlPSJyZ2IoMCwgMCwgMCkiIGZpbGw9Im5vbmUiIGQ9Ik0gMzkxLjU4IDIxNS4zMyBMIDM5MS41OCAyNTkuMzMgTCAzOTEuNTggMzAxLjMzIEwgMzkxLjU4IDM0NS4zMyBMIDM5MS41OCAzOTAuMzMgTCAzOTEuNTggNDMxLjMzIEwgMzkxLjU4IDQ3Ni4zMyIvPjxwYXRoIHN0cm9rZS1taXRlcmxpbWl0PSIxMCIgc3Ryb2tlPSJyZ2IoMCwgMCwgMCkiIGZpbGw9Im5vbmUiIGQ9Ik0gNTQxLjU4IDIxNS4zMyBMIDU0MS41OCAyNTkuMzMgTCA1NDEuNTggMzAxLjMzIEwgNTQxLjU4IDM0NS4zMyBMIDU0MS41OCAzOTAuMzMgTCA1NDEuNTggNDMxLjMzIEwgNTQxLjU4IDQ3Ni4zMyIvPjxyZWN0IHN0cm9rZT0ibm9uZSIgZmlsbD0ibm9uZSIgaGVpZ2h0PSI0NCIgd2lkdGg9IjIzMSIgeT0iMjE1LjMzIiB4PSIzNC41OCIvPjxwYXRoIHN0cm9rZS1taXRlcmxpbWl0PSIxMCIgc3Ryb2tlLWxpbmVjYXA9InNxdWFyZSIgc3Ryb2tlPSJyZ2IoMCwgMCwgMCkiIGZpbGw9Im5vbmUiIGQ9Ik0gMzQuNTggMjE1LjMzIE0gMjY1LjU4IDIxNS4zMyBNIDI2NS41OCAyNTkuMzMgTSAzNC41OCAyNTkuMzMiLz48cmVjdCBzdHJva2U9Im5vbmUiIGZpbGw9Im5vbmUiIGhlaWdodD0iNDQiIHdpZHRoPSIxMjYiIHk9IjIxNS4zMyIgeD0iMjY1LjU4Ii8+PHBhdGggc3Ryb2tlLW1pdGVybGltaXQ9IjEwIiBzdHJva2UtbGluZWNhcD0ic3F1YXJlIiBzdHJva2U9InJnYigwLCAwLCAwKSIgZmlsbD0ibm9uZSIgZD0iTSAyNjUuNTggMjE1LjMzIE0gMzkxLjU4IDIxNS4zMyBNIDM5MS41OCAyNTkuMzMgTSAyNjUuNTggMjU5LjMzIi8+PHJlY3Qgc3Ryb2tlPSJub25lIiBmaWxsPSJub25lIiBoZWlnaHQ9IjQ0IiB3aWR0aD0iMTUwIiB5PSIyMTUuMzMiIHg9IjM5MS41OCIvPjxwYXRoIHN0cm9rZS1taXRlcmxpbWl0PSIxMCIgc3Ryb2tlLWxpbmVjYXA9InNxdWFyZSIgc3Ryb2tlPSJyZ2IoMCwgMCwgMCkiIGZpbGw9Im5vbmUiIGQ9Ik0gMzkxLjU4IDIxNS4zMyBNIDU0MS41OCAyMTUuMzMgTSA1NDEuNTggMjU5LjMzIE0gMzkxLjU4IDI1OS4zMyIvPjxyZWN0IHN0cm9rZT0ibm9uZSIgZmlsbD0ibm9uZSIgaGVpZ2h0PSI0NCIgd2lkdGg9IjI1NCIgeT0iMjE1LjMzIiB4PSI1NDEuNTgiLz48cGF0aCBzdHJva2UtbWl0ZXJsaW1pdD0iMTAiIHN0cm9rZS1saW5lY2FwPSJzcXVhcmUiIHN0cm9rZT0icmdiKDAsIDAsIDApIiBmaWxsPSJub25lIiBkPSJNIDU0MS41OCAyMTUuMzMgTSA3OTUuNTggMjE1LjMzIE0gNzk1LjU4IDI1OS4zMyBNIDU0MS41OCAyNTkuMzMiLz48cmVjdCBzdHJva2U9Im5vbmUiIGZpbGw9Im5vbmUiIGhlaWdodD0iNDIiIHdpZHRoPSIyMzEiIHk9IjI1OS4zMyIgeD0iMzQuNTgiLz48cGF0aCBzdHJva2UtbWl0ZXJsaW1pdD0iMTAiIHN0cm9rZS1saW5lY2FwPSJzcXVhcmUiIHN0cm9rZT0icmdiKDAsIDAsIDApIiBmaWxsPSJub25lIiBkPSJNIDM0LjU4IDI1OS4zMyBNIDI2NS41OCAyNTkuMzMgTSAyNjUuNTggMzAxLjMzIE0gMzQuNTggMzAxLjMzIi8+PHJlY3Qgc3Ryb2tlPSJub25lIiBmaWxsPSJub25lIiBoZWlnaHQ9IjQyIiB3aWR0aD0iMTI2IiB5PSIyNTkuMzMiIHg9IjI2NS41OCIvPjxwYXRoIHN0cm9rZS1taXRlcmxpbWl0PSIxMCIgc3Ryb2tlLWxpbmVjYXA9InNxdWFyZSIgc3Ryb2tlPSJyZ2IoMCwgMCwgMCkiIGZpbGw9Im5vbmUiIGQ9Ik0gMjY1LjU4IDI1OS4zMyBNIDM5MS41OCAyNTkuMzMgTSAzOTEuNTggMzAxLjMzIE0gMjY1LjU4IDMwMS4zMyIvPjxyZWN0IHN0cm9rZT0ibm9uZSIgZmlsbD0ibm9uZSIgaGVpZ2h0PSI0MiIgd2lkdGg9IjE1MCIgeT0iMjU5LjMzIiB4PSIzOTEuNTgiLz48cGF0aCBzdHJva2UtbWl0ZXJsaW1pdD0iMTAiIHN0cm9rZS1saW5lY2FwPSJzcXVhcmUiIHN0cm9rZT0icmdiKDAsIDAsIDApIiBmaWxsPSJub25lIiBkPSJNIDM5MS41OCAyNTkuMzMgTSA1NDEuNTggMjU5LjMzIE0gNTQxLjU4IDMwMS4zMyBNIDM5MS41OCAzMDEuMzMiLz48cmVjdCBzdHJva2U9Im5vbmUiIGZpbGw9Im5vbmUiIGhlaWdodD0iNDIiIHdpZHRoPSIyNTQiIHk9IjI1OS4zMyIgeD0iNTQxLjU4Ii8+PHBhdGggc3Ryb2tlLW1pdGVybGltaXQ9IjEwIiBzdHJva2UtbGluZWNhcD0ic3F1YXJlIiBzdHJva2U9InJnYigwLCAwLCAwKSIgZmlsbD0ibm9uZSIgZD0iTSA1NDEuNTggMjU5LjMzIE0gNzk1LjU4IDI1OS4zMyBNIDc5NS41OCAzMDEuMzMgTSA1NDEuNTggMzAxLjMzIi8+PHJlY3Qgc3Ryb2tlPSJub25lIiBmaWxsPSJub25lIiBoZWlnaHQ9IjQ0IiB3aWR0aD0iMjMxIiB5PSIzMDEuMzMiIHg9IjM0LjU4Ii8+PHBhdGggc3Ryb2tlLW1pdGVybGltaXQ9IjEwIiBzdHJva2UtbGluZWNhcD0ic3F1YXJlIiBzdHJva2U9InJnYigwLCAwLCAwKSIgZmlsbD0ibm9uZSIgZD0iTSAzNC41OCAzMDEuMzMgTSAyNjUuNTggMzAxLjMzIE0gMjY1LjU4IDM0NS4zMyBNIDM0LjU4IDM0NS4zMyIvPjxyZWN0IHN0cm9rZT0ibm9uZSIgZmlsbD0ibm9uZSIgaGVpZ2h0PSI0NCIgd2lkdGg9IjEyNiIgeT0iMzAxLjMzIiB4PSIyNjUuNTgiLz48cGF0aCBzdHJva2UtbWl0ZXJsaW1pdD0iMTAiIHN0cm9rZS1saW5lY2FwPSJzcXVhcmUiIHN0cm9rZT0icmdiKDAsIDAsIDApIiBmaWxsPSJub25lIiBkPSJNIDI2NS41OCAzMDEuMzMgTSAzOTEuNTggMzAxLjMzIE0gMzkxLjU4IDM0NS4zMyBNIDI2NS41OCAzNDUuMzMiLz48cmVjdCBzdHJva2U9Im5vbmUiIGZpbGw9Im5vbmUiIGhlaWdodD0iNDQiIHdpZHRoPSIxNTAiIHk9IjMwMS4zMyIgeD0iMzkxLjU4Ii8+PHBhdGggc3Ryb2tlLW1pdGVybGltaXQ9IjEwIiBzdHJva2UtbGluZWNhcD0ic3F1YXJlIiBzdHJva2U9InJnYigwLCAwLCAwKSIgZmlsbD0ibm9uZSIgZD0iTSAzOTEuNTggMzAxLjMzIE0gNTQxLjU4IDMwMS4zMyBNIDU0MS41OCAzNDUuMzMgTSAzOTEuNTggMzQ1LjMzIi8+PHJlY3Qgc3Ryb2tlPSJub25lIiBmaWxsPSJub25lIiBoZWlnaHQ9IjQ0IiB3aWR0aD0iMjU0IiB5PSIzMDEuMzMiIHg9IjU0MS41OCIvPjxwYXRoIHN0cm9rZS1taXRlcmxpbWl0PSIxMCIgc3Ryb2tlLWxpbmVjYXA9InNxdWFyZSIgc3Ryb2tlPSJyZ2IoMCwgMCwgMCkiIGZpbGw9Im5vbmUiIGQ9Ik0gNTQxLjU4IDMwMS4zMyBNIDc5NS41OCAzMDEuMzMgTSA3OTUuNTggMzQ1LjMzIE0gNTQxLjU4IDM0NS4zMyIvPjxyZWN0IHN0cm9rZT0ibm9uZSIgZmlsbD0ibm9uZSIgaGVpZ2h0PSI0NSIgd2lkdGg9IjIzMSIgeT0iMzQ1LjMzIiB4PSIzNC41OCIvPjxwYXRoIHN0cm9rZS1taXRlcmxpbWl0PSIxMCIgc3Ryb2tlLWxpbmVjYXA9InNxdWFyZSIgc3Ryb2tlPSJyZ2IoMCwgMCwgMCkiIGZpbGw9Im5vbmUiIGQ9Ik0gMzQuNTggMzQ1LjMzIE0gMjY1LjU4IDM0NS4zMyBNIDI2NS41OCAzOTAuMzMgTSAzNC41OCAzOTAuMzMiLz48cmVjdCBzdHJva2U9Im5vbmUiIGZpbGw9Im5vbmUiIGhlaWdodD0iNDUiIHdpZHRoPSIxMjYiIHk9IjM0NS4zMyIgeD0iMjY1LjU4Ii8+PHBhdGggc3Ryb2tlLW1pdGVybGltaXQ9IjEwIiBzdHJva2UtbGluZWNhcD0ic3F1YXJlIiBzdHJva2U9InJnYigwLCAwLCAwKSIgZmlsbD0ibm9uZSIgZD0iTSAyNjUuNTggMzQ1LjMzIE0gMzkxLjU4IDM0NS4zMyBNIDM5MS41OCAzOTAuMzMgTSAyNjUuNTggMzkwLjMzIi8+PHJlY3Qgc3Ryb2tlPSJub25lIiBmaWxsPSJub25lIiBoZWlnaHQ9IjQ1IiB3aWR0aD0iMTUwIiB5PSIzNDUuMzMiIHg9IjM5MS41OCIvPjxwYXRoIHN0cm9rZS1taXRlcmxpbWl0PSIxMCIgc3Ryb2tlLWxpbmVjYXA9InNxdWFyZSIgc3Ryb2tlPSJyZ2IoMCwgMCwgMCkiIGZpbGw9Im5vbmUiIGQ9Ik0gMzkxLjU4IDM0NS4zMyBNIDU0MS41OCAzNDUuMzMgTSA1NDEuNTggMzkwLjMzIE0gMzkxLjU4IDM5MC4zMyIvPjxyZWN0IHN0cm9rZT0ibm9uZSIgZmlsbD0ibm9uZSIgaGVpZ2h0PSI0NSIgd2lkdGg9IjI1NCIgeT0iMzQ1LjMzIiB4PSI1NDEuNTgiLz48cGF0aCBzdHJva2UtbWl0ZXJsaW1pdD0iMTAiIHN0cm9rZS1saW5lY2FwPSJzcXVhcmUiIHN0cm9rZT0icmdiKDAsIDAsIDApIiBmaWxsPSJub25lIiBkPSJNIDU0MS41OCAzNDUuMzMgTSA3OTUuNTggMzQ1LjMzIE0gNzk1LjU4IDM5MC4zMyBNIDU0MS41OCAzOTAuMzMiLz48cmVjdCBzdHJva2U9Im5vbmUiIGZpbGw9Im5vbmUiIGhlaWdodD0iNDEiIHdpZHRoPSIyMzEiIHk9IjM5MC4zMyIgeD0iMzQuNTgiLz48cGF0aCBzdHJva2UtbWl0ZXJsaW1pdD0iMTAiIHN0cm9rZS1saW5lY2FwPSJzcXVhcmUiIHN0cm9rZT0icmdiKDAsIDAsIDApIiBmaWxsPSJub25lIiBkPSJNIDM0LjU4IDM5MC4zMyBNIDI2NS41OCAzOTAuMzMgTSAyNjUuNTggNDMxLjMzIE0gMzQuNTggNDMxLjMzIi8+PHJlY3Qgc3Ryb2tlPSJub25lIiBmaWxsPSJub25lIiBoZWlnaHQ9IjQxIiB3aWR0aD0iMTI2IiB5PSIzOTAuMzMiIHg9IjI2NS41OCIvPjxwYXRoIHN0cm9rZS1taXRlcmxpbWl0PSIxMCIgc3Ryb2tlLWxpbmVjYXA9InNxdWFyZSIgc3Ryb2tlPSJyZ2IoMCwgMCwgMCkiIGZpbGw9Im5vbmUiIGQ9Ik0gMjY1LjU4IDM5MC4zMyBNIDM5MS41OCAzOTAuMzMgTSAzOTEuNTggNDMxLjMzIE0gMjY1LjU4IDQzMS4zMyIvPjxyZWN0IHN0cm9rZT0ibm9uZSIgZmlsbD0ibm9uZSIgaGVpZ2h0PSI0MSIgd2lkdGg9IjE1MCIgeT0iMzkwLjMzIiB4PSIzOTEuNTgiLz48cGF0aCBzdHJva2UtbWl0ZXJsaW1pdD0iMTAiIHN0cm9rZS1saW5lY2FwPSJzcXVhcmUiIHN0cm9rZT0icmdiKDAsIDAsIDApIiBmaWxsPSJub25lIiBkPSJNIDM5MS41OCAzOTAuMzMgTSA1NDEuNTggMzkwLjMzIE0gNTQxLjU4IDQzMS4zMyBNIDM5MS41OCA0MzEuMzMiLz48cmVjdCBzdHJva2U9Im5vbmUiIGZpbGw9Im5vbmUiIGhlaWdodD0iNDEiIHdpZHRoPSIyNTQiIHk9IjM5MC4zMyIgeD0iNTQxLjU4Ii8+PHBhdGggc3Ryb2tlLW1pdGVybGltaXQ9IjEwIiBzdHJva2UtbGluZWNhcD0ic3F1YXJlIiBzdHJva2U9InJnYigwLCAwLCAwKSIgZmlsbD0ibm9uZSIgZD0iTSA1NDEuNTggMzkwLjMzIE0gNzk1LjU4IDM5MC4zMyBNIDc5NS41OCA0MzEuMzMgTSA1NDEuNTggNDMxLjMzIi8+PHJlY3Qgc3Ryb2tlPSJub25lIiBmaWxsPSJub25lIiBoZWlnaHQ9IjQ1IiB3aWR0aD0iMjMxIiB5PSI0MzEuMzMiIHg9IjM0LjU4Ii8+PHBhdGggc3Ryb2tlLW1pdGVybGltaXQ9IjEwIiBzdHJva2UtbGluZWNhcD0ic3F1YXJlIiBzdHJva2U9InJnYigwLCAwLCAwKSIgZmlsbD0ibm9uZSIgZD0iTSAzNC41OCA0MzEuMzMgTSAyNjUuNTggNDMxLjMzIE0gMjY1LjU4IDQ3Ni4zMyBNIDM0LjU4IDQ3Ni4zMyIvPjxyZWN0IHN0cm9rZT0ibm9uZSIgZmlsbD0ibm9uZSIgaGVpZ2h0PSI0NSIgd2lkdGg9IjEyNiIgeT0iNDMxLjMzIiB4PSIyNjUuNTgiLz48cGF0aCBzdHJva2UtbWl0ZXJsaW1pdD0iMTAiIHN0cm9rZS1saW5lY2FwPSJzcXVhcmUiIHN0cm9rZT0icmdiKDAsIDAsIDApIiBmaWxsPSJub25lIiBkPSJNIDI2NS41OCA0MzEuMzMgTSAzOTEuNTggNDMxLjMzIE0gMzkxLjU4IDQ3Ni4zMyBNIDI2NS41OCA0NzYuMzMiLz48cmVjdCBzdHJva2U9Im5vbmUiIGZpbGw9Im5vbmUiIGhlaWdodD0iNDUiIHdpZHRoPSIxNTAiIHk9IjQzMS4zMyIgeD0iMzkxLjU4Ii8+PHBhdGggc3Ryb2tlLW1pdGVybGltaXQ9IjEwIiBzdHJva2UtbGluZWNhcD0ic3F1YXJlIiBzdHJva2U9InJnYigwLCAwLCAwKSIgZmlsbD0ibm9uZSIgZD0iTSAzOTEuNTggNDMxLjMzIE0gNTQxLjU4IDQzMS4zMyBNIDU0MS41OCA0NzYuMzMgTSAzOTEuNTggNDc2LjMzIi8+PHJlY3Qgc3Ryb2tlPSJub25lIiBmaWxsPSJub25lIiBoZWlnaHQ9IjQ1IiB3aWR0aD0iMjU0IiB5PSI0MzEuMzMiIHg9IjU0MS41OCIvPjxwYXRoIHN0cm9rZS1taXRlcmxpbWl0PSIxMCIgc3Ryb2tlLWxpbmVjYXA9InNxdWFyZSIgc3Ryb2tlPSJyZ2IoMCwgMCwgMCkiIGZpbGw9Im5vbmUiIGQ9Ik0gNTQxLjU4IDQzMS4zMyBNIDc5NS41OCA0MzEuMzMgTSA3OTUuNTggNDc2LjMzIE0gNTQxLjU4IDQ3Ni4zMyIvPjxyZWN0IHN0cm9rZT0iIzk5OTk5OSIgZmlsbD0iI2ZmZmZmZiIgcnk9IjUiIHJ4PSI1IiBoZWlnaHQ9IjM0IiB3aWR0aD0iMTcyLjkyIiB5PSIxNTguNjciIHg9IjEwMy43NSIvPjxwYXRoIHN0cm9rZS1taXRlcmxpbWl0PSIxMCIgc3Ryb2tlPSIjOTk5OTk5IiBmaWxsPSJ1cmwoI214LWdyYWRpZW50LWRkZWVmZi0xLWFhZGRmZi0xLXMtMCkiIGQ9Ik0gMjQ2LjY3IDE1OC42NyBMIDI3MS42NyAxNTguNjcgQyAyNzQuNDMgMTU4LjY3IDI3Ni42NyAxNjAuOTEgMjc2LjY3IDE2My42NyBMIDI3Ni42NyAxODcuNjcgQyAyNzYuNjcgMTkwLjQzIDI3NC40MyAxOTIuNjcgMjcxLjY3IDE5Mi42NyBMIDI0Ni42NyAxOTIuNjcgWiIvPjxwYXRoIHN0cm9rZT0ibm9uZSIgZmlsbD0iI2ZmZmZmZiIgZD0iTSAyNTQuNjcgMTcwLjY3IEwgMjYxLjY3IDE4MC42NyBMIDI2OC42NyAxNzAuNjciLz48ZyBmb250LXNpemU9IjE3cHgiIGZvbnQtZmFtaWx5PSJBcmlhbCxIZWx2ZXRpY2EiIGZpbGw9IiM2NjY2NjYiLz48cmVjdCBzdHJva2U9IiM5OTk5OTkiIGZpbGw9IiNmZmZmZmYiIHJ5PSI1IiByeD0iNSIgaGVpZ2h0PSIzNCIgd2lkdGg9IjE3Mi45MiIgeT0iMTU4LjY3IiB4PSIzMjIuNzgiLz48cGF0aCBzdHJva2UtbWl0ZXJsaW1pdD0iMTAiIHN0cm9rZT0iIzk5OTk5OSIgZmlsbD0idXJsKCNteC1ncmFkaWVudC1kZGVlZmYtMS1hYWRkZmYtMS1zLTApIiBkPSJNIDQ2NS42OSAxNTguNjcgTCA0OTAuNjkgMTU4LjY3IEMgNDkzLjQ2IDE1OC42NyA0OTUuNjkgMTYwLjkxIDQ5NS42OSAxNjMuNjcgTCA0OTUuNjkgMTg3LjY3IEMgNDk1LjY5IDE5MC40MyA0OTMuNDYgMTkyLjY3IDQ5MC42OSAxOTIuNjcgTCA0NjUuNjkgMTkyLjY3IFoiLz48cGF0aCBzdHJva2U9Im5vbmUiIGZpbGw9IiNmZmZmZmYiIGQ9Ik0gNDczLjY5IDE3MC42NyBMIDQ4MC42OSAxODAuNjcgTCA0ODcuNjkgMTcwLjY3Ii8+PGcgZm9udC1zaXplPSIxN3B4IiBmb250LWZhbWlseT0iQXJpYWwsSGVsdmV0aWNhIiBmaWxsPSIjNjY2NjY2Ii8+PHJlY3Qgc3Ryb2tlPSIjZDZiNjU2IiBmaWxsPSIjZmZmMmNjIiByeT0iNi44IiByeD0iNi44IiBoZWlnaHQ9IjQ1LjMzIiB3aWR0aD0iNzYwLjgzIiB5PSI5MC42NyIgeD0iMzQuNTgiLz48cGF0aCBzdHJva2UtbWl0ZXJsaW1pdD0iMTAiIHN0cm9rZT0iI2I4NTQ1MCIgZmlsbD0iI2Y4Y2VjYyIgZD0iTSA2MzQuMDMgMTA2LjMzIEMgNjM0LjAzIDEwMC44MSA2MzguNSA5Ni4zMyA2NDQuMDMgOTYuMzMgTCA3NzMuODkgOTYuMzMgQyA3NzkuNDEgOTYuMzMgNzgzLjg5IDEwMC44MSA3ODMuODkgMTA2LjMzIEwgNzgzLjg5IDEyMC4zMyBDIDc4My44OSAxMjUuODYgNzc5LjQxIDEzMC4zMyA3NzMuODkgMTMwLjMzIEwgNjQ0LjAzIDEzMC4zMyBDIDYzOC41IDEzMC4zMyA2MzQuMDMgMTI1Ljg2IDYzNC4wMyAxMjAuMzMgWiIvPjxnIGZvbnQtc2l6ZT0iMTdweCIgdGV4dC1hbmNob3I9Im1pZGRsZSIgZm9udC13ZWlnaHQ9ImJvbGQiIGZvbnQtZmFtaWx5PSJBcmlhbCxIZWx2ZXRpY2EiIGZpbGw9IiM2NjY2NjYiLz48L2c+PC9zdmc+;" parent="1" vertex="1">
          <mxGeometry x="153.44" y="840" width="146.25" height="90" as="geometry" />
        </mxCell>
        <mxCell id="1HjG3uotYe_h-KVPdPKy-18" style="edgeStyle=orthogonalEdgeStyle;rounded=0;orthogonalLoop=1;jettySize=auto;html=1;entryX=0.5;entryY=0;entryDx=0;entryDy=0;" parent="1" source="1HjG3uotYe_h-KVPdPKy-19" target="1HjG3uotYe_h-KVPdPKy-17" edge="1">
          <mxGeometry relative="1" as="geometry">
            <Array as="points">
              <mxPoint x="600" y="770" />
              <mxPoint x="460" y="770" />
              <mxPoint x="460" y="810" />
              <mxPoint x="227" y="810" />
            </Array>
          </mxGeometry>
        </mxCell>
        <mxCell id="1HjG3uotYe_h-KVPdPKy-19" value="Implementing instrumentation coordinator service" style="rounded=0;whiteSpace=wrap;html=1;" parent="1" vertex="1">
          <mxGeometry x="540.02" y="680" width="120" height="60" as="geometry" />
        </mxCell>
        <mxCell id="mqCOJwGeGGB9p32X-X-w-29" style="edgeStyle=orthogonalEdgeStyle;rounded=0;orthogonalLoop=1;jettySize=auto;html=1;" parent="1" source="1HjG3uotYe_h-KVPdPKy-22" target="mqCOJwGeGGB9p32X-X-w-4" edge="1">
          <mxGeometry relative="1" as="geometry" />
        </mxCell>
        <mxCell id="1HjG3uotYe_h-KVPdPKy-22" value="Qualitative&lt;div&gt;evaluation&lt;/div&gt;" style="rounded=0;whiteSpace=wrap;html=1;" parent="1" vertex="1">
          <mxGeometry x="296.56" y="1020" width="120" height="60" as="geometry" />
        </mxCell>
        <mxCell id="1HjG3uotYe_h-KVPdPKy-23" style="edgeStyle=orthogonalEdgeStyle;rounded=0;orthogonalLoop=1;jettySize=auto;html=1;entryX=0.5;entryY=0;entryDx=0;entryDy=0;" parent="1" source="1HjG3uotYe_h-KVPdPKy-24" target="1HjG3uotYe_h-KVPdPKy-17" edge="1">
          <mxGeometry relative="1" as="geometry">
            <Array as="points">
              <mxPoint x="740" y="770" />
              <mxPoint x="460" y="770" />
              <mxPoint x="460" y="810" />
              <mxPoint x="227" y="810" />
            </Array>
          </mxGeometry>
        </mxCell>
        <mxCell id="1HjG3uotYe_h-KVPdPKy-24" value="Building&lt;div&gt;impact graphs&lt;/div&gt;" style="rounded=0;whiteSpace=wrap;html=1;" parent="1" vertex="1">
          <mxGeometry x="680.01" y="680" width="120" height="60" as="geometry" />
        </mxCell>
        <mxCell id="mqCOJwGeGGB9p32X-X-w-2" style="edgeStyle=orthogonalEdgeStyle;rounded=0;orthogonalLoop=1;jettySize=auto;html=1;entryX=0.5;entryY=0;entryDx=0;entryDy=0;" parent="1" source="TLlS5jzYpAgBSSOQXHmH-1" target="1HjG3uotYe_h-KVPdPKy-22" edge="1">
          <mxGeometry relative="1" as="geometry">
            <Array as="points">
              <mxPoint x="636.5600000000001" y="890" />
              <mxPoint x="636.5600000000001" y="975" />
              <mxPoint x="356.56" y="975" />
            </Array>
          </mxGeometry>
        </mxCell>
        <mxCell id="Y94_mX4zchIfNmwFGdK2-3" style="edgeStyle=orthogonalEdgeStyle;rounded=0;orthogonalLoop=1;jettySize=auto;html=1;entryX=0.5;entryY=0;entryDx=0;entryDy=0;" parent="1" source="TLlS5jzYpAgBSSOQXHmH-1" target="3czSBj_Hm7kzrivAtjjv-27" edge="1">
          <mxGeometry relative="1" as="geometry">
            <Array as="points">
              <mxPoint x="636.5600000000001" y="890" />
            </Array>
          </mxGeometry>
        </mxCell>
        <mxCell id="TLlS5jzYpAgBSSOQXHmH-1" value="Experiment scenarios" style="verticalLabelPosition=bottom;verticalAlign=top;html=1;shape=mxgraph.basic.layered_rect;dx=9.67;outlineConnect=0;whiteSpace=wrap;" parent="1" vertex="1">
          <mxGeometry x="366.56" y="850" width="140" height="80" as="geometry" />
        </mxCell>
        <mxCell id="3czSBj_Hm7kzrivAtjjv-1" value="" style="group;movable=1;resizable=1;rotatable=1;deletable=1;editable=1;locked=0;connectable=1;" parent="1" vertex="1" connectable="0">
          <mxGeometry x="388.56" y="855" width="95.29" height="60" as="geometry" />
        </mxCell>
        <mxCell id="3czSBj_Hm7kzrivAtjjv-2" style="rounded=0;orthogonalLoop=1;jettySize=auto;html=1;exitX=1;exitY=0.25;exitDx=0;exitDy=0;entryX=0;entryY=0.25;entryDx=0;entryDy=0;fillColor=#d5e8d4;strokeColor=#82b366;endArrow=none;endFill=0;" parent="3czSBj_Hm7kzrivAtjjv-1" source="3czSBj_Hm7kzrivAtjjv-4" target="3czSBj_Hm7kzrivAtjjv-10" edge="1">
          <mxGeometry relative="1" as="geometry">
            <mxPoint x="38.39368090600701" y="1.5506111584239295" as="targetPoint" />
          </mxGeometry>
        </mxCell>
        <mxCell id="3czSBj_Hm7kzrivAtjjv-3" style="rounded=0;orthogonalLoop=1;jettySize=auto;html=1;exitX=1;exitY=0.75;exitDx=0;exitDy=0;entryX=0;entryY=0.75;entryDx=0;entryDy=0;fillColor=#ffe6cc;strokeColor=#d79b00;endArrow=none;endFill=0;" parent="3czSBj_Hm7kzrivAtjjv-1" source="3czSBj_Hm7kzrivAtjjv-4" target="3czSBj_Hm7kzrivAtjjv-10" edge="1">
          <mxGeometry relative="1" as="geometry">
            <mxPoint x="38.39368090600701" y="9.037624135693699" as="targetPoint" />
          </mxGeometry>
        </mxCell>
        <mxCell id="3czSBj_Hm7kzrivAtjjv-4" value="" style="rounded=1;whiteSpace=wrap;html=1;container=0;" parent="3czSBj_Hm7kzrivAtjjv-1" vertex="1">
          <mxGeometry width="21.175555555555558" height="10.588235294117649" as="geometry" />
        </mxCell>
        <mxCell id="3czSBj_Hm7kzrivAtjjv-5" value="" style="ellipse;whiteSpace=wrap;html=1;fillColor=#dae8fc;strokeColor=#6c8ebf;container=0;" parent="3czSBj_Hm7kzrivAtjjv-1" vertex="1">
          <mxGeometry x="74.11444444444446" y="12.352941176470589" width="21.175555555555558" height="10.588235294117649" as="geometry" />
        </mxCell>
        <mxCell id="3czSBj_Hm7kzrivAtjjv-6" value="" style="ellipse;whiteSpace=wrap;html=1;fillColor=#f8cecc;strokeColor=#b85450;container=0;" parent="3czSBj_Hm7kzrivAtjjv-1" vertex="1">
          <mxGeometry x="74.11444444444446" y="37.05882352941177" width="21.175555555555558" height="10.588235294117649" as="geometry" />
        </mxCell>
        <mxCell id="3czSBj_Hm7kzrivAtjjv-7" style="rounded=0;orthogonalLoop=1;jettySize=auto;html=1;exitX=1;exitY=0.25;exitDx=0;exitDy=0;entryX=0.5;entryY=0;entryDx=0;entryDy=0;fillColor=#d5e8d4;strokeColor=#82b366;endArrow=none;endFill=0;" parent="3czSBj_Hm7kzrivAtjjv-1" source="3czSBj_Hm7kzrivAtjjv-10" target="3czSBj_Hm7kzrivAtjjv-5" edge="1">
          <mxGeometry relative="1" as="geometry" />
        </mxCell>
        <mxCell id="3czSBj_Hm7kzrivAtjjv-8" style="rounded=0;orthogonalLoop=1;jettySize=auto;html=1;exitX=1;exitY=0.75;exitDx=0;exitDy=0;entryX=0;entryY=0.5;entryDx=0;entryDy=0;fillColor=#ffe6cc;strokeColor=#d79b00;endArrow=none;endFill=0;" parent="3czSBj_Hm7kzrivAtjjv-1" source="3czSBj_Hm7kzrivAtjjv-10" target="3czSBj_Hm7kzrivAtjjv-5" edge="1">
          <mxGeometry relative="1" as="geometry" />
        </mxCell>
        <mxCell id="3czSBj_Hm7kzrivAtjjv-9" style="rounded=0;orthogonalLoop=1;jettySize=auto;html=1;exitX=1;exitY=0.75;exitDx=0;exitDy=0;entryX=0;entryY=0;entryDx=0;entryDy=0;fillColor=#ffe6cc;strokeColor=#d79b00;endArrow=none;endFill=0;" parent="3czSBj_Hm7kzrivAtjjv-1" source="3czSBj_Hm7kzrivAtjjv-10" target="3czSBj_Hm7kzrivAtjjv-5" edge="1">
          <mxGeometry relative="1" as="geometry" />
        </mxCell>
        <mxCell id="3czSBj_Hm7kzrivAtjjv-10" value="" style="rounded=1;whiteSpace=wrap;html=1;fillColor=#dae8fc;strokeColor=#6c8ebf;container=0;" parent="3czSBj_Hm7kzrivAtjjv-1" vertex="1">
          <mxGeometry x="38.82185185185186" width="21.175555555555558" height="10.588235294117649" as="geometry" />
        </mxCell>
        <mxCell id="3czSBj_Hm7kzrivAtjjv-11" style="rounded=0;orthogonalLoop=1;jettySize=auto;html=1;exitX=1;exitY=0.25;exitDx=0;exitDy=0;entryX=0;entryY=0.25;entryDx=0;entryDy=0;fillColor=#d5e8d4;strokeColor=#82b366;endArrow=none;endFill=0;" parent="3czSBj_Hm7kzrivAtjjv-1" source="3czSBj_Hm7kzrivAtjjv-13" target="3czSBj_Hm7kzrivAtjjv-17" edge="1">
          <mxGeometry relative="1" as="geometry">
            <mxPoint x="38.39368090600701" y="26.256493511365107" as="targetPoint" />
          </mxGeometry>
        </mxCell>
        <mxCell id="3czSBj_Hm7kzrivAtjjv-12" style="rounded=0;orthogonalLoop=1;jettySize=auto;html=1;exitX=1;exitY=0.75;exitDx=0;exitDy=0;entryX=0;entryY=0.75;entryDx=0;entryDy=0;fillColor=#ffe6cc;strokeColor=#d79b00;endArrow=none;endFill=0;" parent="3czSBj_Hm7kzrivAtjjv-1" source="3czSBj_Hm7kzrivAtjjv-13" target="3czSBj_Hm7kzrivAtjjv-17" edge="1">
          <mxGeometry relative="1" as="geometry">
            <mxPoint x="38.39368090600701" y="33.74350648863488" as="targetPoint" />
          </mxGeometry>
        </mxCell>
        <mxCell id="3czSBj_Hm7kzrivAtjjv-13" value="" style="rounded=1;whiteSpace=wrap;html=1;container=0;" parent="3czSBj_Hm7kzrivAtjjv-1" vertex="1">
          <mxGeometry y="24.705882352941178" width="21.175555555555558" height="10.588235294117649" as="geometry" />
        </mxCell>
        <mxCell id="3czSBj_Hm7kzrivAtjjv-14" style="rounded=0;orthogonalLoop=1;jettySize=auto;html=1;exitX=1;exitY=0.25;exitDx=0;exitDy=0;entryX=0;entryY=1;entryDx=0;entryDy=0;fillColor=#d5e8d4;strokeColor=#82b366;endArrow=none;endFill=0;" parent="3czSBj_Hm7kzrivAtjjv-1" source="3czSBj_Hm7kzrivAtjjv-17" target="3czSBj_Hm7kzrivAtjjv-5" edge="1">
          <mxGeometry relative="1" as="geometry" />
        </mxCell>
        <mxCell id="3czSBj_Hm7kzrivAtjjv-15" style="rounded=0;orthogonalLoop=1;jettySize=auto;html=1;exitX=1;exitY=0.75;exitDx=0;exitDy=0;entryX=0;entryY=0;entryDx=0;entryDy=0;fillColor=#ffe6cc;strokeColor=#d79b00;endArrow=none;endFill=0;" parent="3czSBj_Hm7kzrivAtjjv-1" source="3czSBj_Hm7kzrivAtjjv-17" target="3czSBj_Hm7kzrivAtjjv-6" edge="1">
          <mxGeometry relative="1" as="geometry" />
        </mxCell>
        <mxCell id="3czSBj_Hm7kzrivAtjjv-16" style="rounded=0;orthogonalLoop=1;jettySize=auto;html=1;exitX=1;exitY=0.75;exitDx=0;exitDy=0;entryX=0.5;entryY=1;entryDx=0;entryDy=0;fillColor=#ffe6cc;strokeColor=#d79b00;endArrow=none;endFill=0;" parent="3czSBj_Hm7kzrivAtjjv-1" source="3czSBj_Hm7kzrivAtjjv-17" target="3czSBj_Hm7kzrivAtjjv-5" edge="1">
          <mxGeometry relative="1" as="geometry" />
        </mxCell>
        <mxCell id="3czSBj_Hm7kzrivAtjjv-17" value="" style="rounded=1;whiteSpace=wrap;html=1;fillColor=#dae8fc;strokeColor=#6c8ebf;container=0;" parent="3czSBj_Hm7kzrivAtjjv-1" vertex="1">
          <mxGeometry x="38.82185185185186" y="24.705882352941178" width="21.175555555555558" height="10.588235294117649" as="geometry" />
        </mxCell>
        <mxCell id="3czSBj_Hm7kzrivAtjjv-18" style="rounded=0;orthogonalLoop=1;jettySize=auto;html=1;exitX=1;exitY=0.25;exitDx=0;exitDy=0;entryX=0;entryY=0.25;entryDx=0;entryDy=0;fillColor=#d5e8d4;strokeColor=#82b366;endArrow=none;endFill=0;" parent="3czSBj_Hm7kzrivAtjjv-1" source="3czSBj_Hm7kzrivAtjjv-20" target="3czSBj_Hm7kzrivAtjjv-24" edge="1">
          <mxGeometry relative="1" as="geometry">
            <mxPoint x="38.39368090600701" y="50.96237586430629" as="targetPoint" />
          </mxGeometry>
        </mxCell>
        <mxCell id="3czSBj_Hm7kzrivAtjjv-19" style="rounded=0;orthogonalLoop=1;jettySize=auto;html=1;exitX=1;exitY=0.75;exitDx=0;exitDy=0;entryX=0;entryY=0.75;entryDx=0;entryDy=0;fillColor=#ffe6cc;strokeColor=#d79b00;endArrow=none;endFill=0;" parent="3czSBj_Hm7kzrivAtjjv-1" source="3czSBj_Hm7kzrivAtjjv-20" target="3czSBj_Hm7kzrivAtjjv-24" edge="1">
          <mxGeometry relative="1" as="geometry">
            <mxPoint x="38.39368090600701" y="58.44938884157605" as="targetPoint" />
          </mxGeometry>
        </mxCell>
        <mxCell id="3czSBj_Hm7kzrivAtjjv-20" value="" style="rounded=1;whiteSpace=wrap;html=1;container=0;" parent="3czSBj_Hm7kzrivAtjjv-1" vertex="1">
          <mxGeometry y="49.411764705882355" width="21.175555555555558" height="10.588235294117649" as="geometry" />
        </mxCell>
        <mxCell id="3czSBj_Hm7kzrivAtjjv-21" style="rounded=0;orthogonalLoop=1;jettySize=auto;html=1;exitX=1;exitY=0.25;exitDx=0;exitDy=0;entryX=0;entryY=0.5;entryDx=0;entryDy=0;fillColor=#d5e8d4;strokeColor=#82b366;endArrow=none;endFill=0;" parent="3czSBj_Hm7kzrivAtjjv-1" source="3czSBj_Hm7kzrivAtjjv-24" target="3czSBj_Hm7kzrivAtjjv-6" edge="1">
          <mxGeometry relative="1" as="geometry" />
        </mxCell>
        <mxCell id="3czSBj_Hm7kzrivAtjjv-22" style="rounded=0;orthogonalLoop=1;jettySize=auto;html=1;exitX=1;exitY=0.75;exitDx=0;exitDy=0;entryX=0;entryY=1;entryDx=0;entryDy=0;fillColor=#ffe6cc;strokeColor=#d79b00;endArrow=none;endFill=0;" parent="3czSBj_Hm7kzrivAtjjv-1" source="3czSBj_Hm7kzrivAtjjv-24" target="3czSBj_Hm7kzrivAtjjv-6" edge="1">
          <mxGeometry relative="1" as="geometry" />
        </mxCell>
        <mxCell id="3czSBj_Hm7kzrivAtjjv-23" style="rounded=0;orthogonalLoop=1;jettySize=auto;html=1;exitX=1;exitY=0.75;exitDx=0;exitDy=0;entryX=0.5;entryY=1;entryDx=0;entryDy=0;fillColor=#ffe6cc;strokeColor=#d79b00;endArrow=none;endFill=0;" parent="3czSBj_Hm7kzrivAtjjv-1" source="3czSBj_Hm7kzrivAtjjv-24" target="3czSBj_Hm7kzrivAtjjv-6" edge="1">
          <mxGeometry relative="1" as="geometry" />
        </mxCell>
        <mxCell id="3czSBj_Hm7kzrivAtjjv-24" value="" style="rounded=1;whiteSpace=wrap;html=1;fillColor=#dae8fc;strokeColor=#6c8ebf;container=0;" parent="3czSBj_Hm7kzrivAtjjv-1" vertex="1">
          <mxGeometry x="38.82185185185186" y="49.411764705882355" width="21.175555555555558" height="10.588235294117649" as="geometry" />
        </mxCell>
        <mxCell id="3czSBj_Hm7kzrivAtjjv-26" value="Limitations&amp;nbsp;&lt;span style=&quot;background-color: initial;&quot;&gt;and&amp;nbsp;&lt;/span&gt;&lt;div&gt;&lt;div&gt;future work&lt;/div&gt;&lt;/div&gt;" style="rounded=0;whiteSpace=wrap;html=1;" parent="1" vertex="1">
          <mxGeometry x="506.56" y="1310" width="120" height="60" as="geometry" />
        </mxCell>
        <mxCell id="3czSBj_Hm7kzrivAtjjv-27" value="Quantitative evaluation" style="rounded=0;whiteSpace=wrap;html=1;" parent="1" vertex="1">
          <mxGeometry x="576.5600000000001" y="1020" width="120" height="60" as="geometry" />
        </mxCell>
        <mxCell id="3czSBj_Hm7kzrivAtjjv-29" style="edgeStyle=orthogonalEdgeStyle;rounded=0;orthogonalLoop=1;jettySize=auto;html=1;entryX=0;entryY=0;entryDx=0;entryDy=35.165;entryPerimeter=0;" parent="1" source="1HjG3uotYe_h-KVPdPKy-17" target="TLlS5jzYpAgBSSOQXHmH-1" edge="1">
          <mxGeometry relative="1" as="geometry" />
        </mxCell>
        <mxCell id="gcLckiaTtqwHseO0V1Fi-11" style="edgeStyle=orthogonalEdgeStyle;rounded=0;orthogonalLoop=1;jettySize=auto;html=1;entryX=0.5;entryY=0;entryDx=0;entryDy=0;" parent="1" source="mqCOJwGeGGB9p32X-X-w-4" target="3czSBj_Hm7kzrivAtjjv-26" edge="1">
          <mxGeometry relative="1" as="geometry">
            <Array as="points">
              <mxPoint x="466.56" y="1170" />
              <mxPoint x="466.56" y="1260" />
              <mxPoint x="566.5600000000001" y="1260" />
            </Array>
          </mxGeometry>
        </mxCell>
        <mxCell id="mqCOJwGeGGB9p32X-X-w-4" value="Scenario walkthrough results" style="verticalLabelPosition=bottom;verticalAlign=top;html=1;shape=mxgraph.basic.layered_rect;dx=9.67;outlineConnect=0;whiteSpace=wrap;" parent="1" vertex="1">
          <mxGeometry x="286.56" y="1130" width="140" height="80" as="geometry" />
        </mxCell>
        <mxCell id="mqCOJwGeGGB9p32X-X-w-3" value="" style="verticalLabelPosition=bottom;verticalAlign=top;html=1;shape=mxgraph.basic.tick;fillColor=#d5e8d4;strokeColor=#82b366;" parent="1" vertex="1">
          <mxGeometry x="295.56" y="1132" width="20" height="25" as="geometry" />
        </mxCell>
        <mxCell id="mqCOJwGeGGB9p32X-X-w-30" value="" style="endArrow=none;html=1;rounded=0;" parent="1" edge="1">
          <mxGeometry width="50" height="50" relative="1" as="geometry">
            <mxPoint x="316.56" y="1144.4" as="sourcePoint" />
            <mxPoint x="396.56" y="1144.4" as="targetPoint" />
          </mxGeometry>
        </mxCell>
        <mxCell id="mqCOJwGeGGB9p32X-X-w-31" value="" style="endArrow=none;html=1;rounded=0;" parent="1" edge="1">
          <mxGeometry width="50" height="50" relative="1" as="geometry">
            <mxPoint x="316.56" y="1162.4" as="sourcePoint" />
            <mxPoint x="396.56" y="1162.4" as="targetPoint" />
          </mxGeometry>
        </mxCell>
        <mxCell id="mqCOJwGeGGB9p32X-X-w-32" value="" style="endArrow=none;html=1;rounded=0;" parent="1" edge="1">
          <mxGeometry width="50" height="50" relative="1" as="geometry">
            <mxPoint x="316.56" y="1182.4" as="sourcePoint" />
            <mxPoint x="396.56" y="1182.4" as="targetPoint" />
          </mxGeometry>
        </mxCell>
        <mxCell id="mqCOJwGeGGB9p32X-X-w-33" value="" style="verticalLabelPosition=bottom;verticalAlign=top;html=1;shape=mxgraph.basic.tick;fillColor=#d5e8d4;strokeColor=#82b366;" parent="1" vertex="1">
          <mxGeometry x="295.56" y="1150" width="20" height="25" as="geometry" />
        </mxCell>
        <mxCell id="mqCOJwGeGGB9p32X-X-w-34" value="" style="verticalLabelPosition=bottom;verticalAlign=top;html=1;shape=mxgraph.basic.tick;fillColor=#d5e8d4;strokeColor=#82b366;" parent="1" vertex="1">
          <mxGeometry x="296.56" y="1170" width="20" height="25" as="geometry" />
        </mxCell>
        <mxCell id="gcLckiaTtqwHseO0V1Fi-7" style="edgeStyle=orthogonalEdgeStyle;rounded=0;orthogonalLoop=1;jettySize=auto;html=1;entryX=0.5;entryY=0;entryDx=0;entryDy=0;" parent="1" source="Y94_mX4zchIfNmwFGdK2-1" target="3czSBj_Hm7kzrivAtjjv-26" edge="1">
          <mxGeometry relative="1" as="geometry" />
        </mxCell>
        <mxCell id="Y94_mX4zchIfNmwFGdK2-1" value="Overhead metrics" style="shape=note;whiteSpace=wrap;html=1;backgroundOutline=1;darkOpacity=0.05;size=16;" parent="1" vertex="1">
          <mxGeometry x="506.56" y="1152.5" width="120" height="60" as="geometry" />
        </mxCell>
        <mxCell id="gcLckiaTtqwHseO0V1Fi-9" style="edgeStyle=orthogonalEdgeStyle;rounded=0;orthogonalLoop=1;jettySize=auto;html=1;entryX=0.5;entryY=0;entryDx=0;entryDy=0;" parent="1" source="Y94_mX4zchIfNmwFGdK2-2" target="3czSBj_Hm7kzrivAtjjv-26" edge="1">
          <mxGeometry relative="1" as="geometry">
            <Array as="points">
              <mxPoint x="706.5600000000001" y="1260" />
              <mxPoint x="566.5600000000001" y="1260" />
            </Array>
          </mxGeometry>
        </mxCell>
        <mxCell id="Y94_mX4zchIfNmwFGdK2-2" value="Resource usage metrics" style="shape=note;whiteSpace=wrap;html=1;backgroundOutline=1;darkOpacity=0.05;size=16;" parent="1" vertex="1">
          <mxGeometry x="646.5600000000001" y="1152.5" width="120" height="60" as="geometry" />
        </mxCell>
        <mxCell id="gcLckiaTtqwHseO0V1Fi-1" style="edgeStyle=orthogonalEdgeStyle;rounded=0;orthogonalLoop=1;jettySize=auto;html=1;entryX=0.5;entryY=0;entryDx=0;entryDy=0;entryPerimeter=0;" parent="1" source="3czSBj_Hm7kzrivAtjjv-27" target="Y94_mX4zchIfNmwFGdK2-1" edge="1">
          <mxGeometry relative="1" as="geometry" />
        </mxCell>
        <mxCell id="gcLckiaTtqwHseO0V1Fi-2" style="edgeStyle=orthogonalEdgeStyle;rounded=0;orthogonalLoop=1;jettySize=auto;html=1;entryX=0.5;entryY=0;entryDx=0;entryDy=0;entryPerimeter=0;" parent="1" source="3czSBj_Hm7kzrivAtjjv-27" target="Y94_mX4zchIfNmwFGdK2-2" edge="1">
          <mxGeometry relative="1" as="geometry" />
        </mxCell>
      </root>
    </mxGraphModel>
  </diagram>
  <diagram id="1BpIP6o8yNihpJQQ6M3g" name="Empty GUI">
    <mxGraphModel dx="972" dy="706" grid="1" gridSize="10" guides="1" tooltips="1" connect="1" arrows="1" fold="1" page="1" pageScale="1" pageWidth="850" pageHeight="1100" math="0" shadow="0">
      <root>
        <mxCell id="0" />
        <mxCell id="1" parent="0" />
        <mxCell id="25trkPN82xEzG1GmqPAY-1" value="" style="group;movable=1;resizable=1;rotatable=1;deletable=1;editable=1;locked=0;connectable=1;" parent="1" vertex="1" connectable="0">
          <mxGeometry x="460" y="710" width="830" height="510" as="geometry" />
        </mxCell>
        <mxCell id="25trkPN82xEzG1GmqPAY-2" value="" style="rounded=0;whiteSpace=wrap;html=1;fillColor=none;movable=1;resizable=1;rotatable=1;deletable=1;editable=1;locked=0;connectable=1;" parent="25trkPN82xEzG1GmqPAY-1" vertex="1">
          <mxGeometry width="829.9999999999999" height="510" as="geometry" />
        </mxCell>
        <mxCell id="25trkPN82xEzG1GmqPAY-3" value="" style="rounded=1;whiteSpace=wrap;html=1;fillColor=#fff2cc;strokeColor=#d6b656;align=left;movable=1;resizable=1;rotatable=1;deletable=1;editable=1;locked=0;connectable=1;" parent="25trkPN82xEzG1GmqPAY-1" vertex="1">
          <mxGeometry x="34.58333333333333" y="34" width="760.8333333333333" height="45.33333333333333" as="geometry" />
        </mxCell>
        <mxCell id="25trkPN82xEzG1GmqPAY-4" value="" style="strokeWidth=1;shadow=0;dashed=0;align=center;html=1;shape=mxgraph.mockup.buttons.button;strokeColor=#b85450;mainText=;buttonStyle=round;fontSize=14;fontStyle=1;fillColor=#f8cecc;whiteSpace=wrap;movable=1;resizable=1;rotatable=1;deletable=1;editable=1;locked=0;connectable=1;" parent="25trkPN82xEzG1GmqPAY-1" vertex="1">
          <mxGeometry x="634.0277777777777" y="39.666666666666664" width="149.8611111111111" height="34" as="geometry" />
        </mxCell>
        <mxCell id="25trkPN82xEzG1GmqPAY-5" value="" style="shape=table;startSize=0;container=1;collapsible=0;childLayout=tableLayout;movable=1;resizable=1;rotatable=1;deletable=1;editable=1;locked=0;connectable=1;" parent="25trkPN82xEzG1GmqPAY-1" vertex="1">
          <mxGeometry x="34.58333333333333" y="215.33333333333331" width="760.8333333333333" height="260.6666666666667" as="geometry" />
        </mxCell>
        <mxCell id="25trkPN82xEzG1GmqPAY-6" value="" style="shape=tableRow;horizontal=0;startSize=0;swimlaneHead=0;swimlaneBody=0;strokeColor=inherit;top=0;left=0;bottom=0;right=0;collapsible=0;dropTarget=0;fillColor=none;points=[[0,0.5],[1,0.5]];portConstraint=eastwest;movable=1;resizable=1;rotatable=1;deletable=1;editable=1;locked=0;connectable=1;" parent="25trkPN82xEzG1GmqPAY-5" vertex="1">
          <mxGeometry width="760.8333333333333" height="44" as="geometry" />
        </mxCell>
        <mxCell id="25trkPN82xEzG1GmqPAY-7" value="" style="shape=partialRectangle;html=1;whiteSpace=wrap;connectable=1;strokeColor=inherit;overflow=hidden;fillColor=none;top=0;left=0;bottom=0;right=0;pointerEvents=1;fontStyle=1;movable=1;resizable=1;rotatable=1;deletable=1;editable=1;locked=0;" parent="25trkPN82xEzG1GmqPAY-6" vertex="1">
          <mxGeometry width="231" height="44" as="geometry">
            <mxRectangle width="231" height="44" as="alternateBounds" />
          </mxGeometry>
        </mxCell>
        <mxCell id="25trkPN82xEzG1GmqPAY-8" value="" style="shape=partialRectangle;html=1;whiteSpace=wrap;connectable=1;strokeColor=inherit;overflow=hidden;fillColor=none;top=0;left=0;bottom=0;right=0;pointerEvents=1;fontStyle=1;movable=1;resizable=1;rotatable=1;deletable=1;editable=1;locked=0;" parent="25trkPN82xEzG1GmqPAY-6" vertex="1">
          <mxGeometry x="231" width="126" height="44" as="geometry">
            <mxRectangle width="126" height="44" as="alternateBounds" />
          </mxGeometry>
        </mxCell>
        <mxCell id="25trkPN82xEzG1GmqPAY-9" value="" style="shape=partialRectangle;html=1;whiteSpace=wrap;connectable=1;strokeColor=inherit;overflow=hidden;fillColor=none;top=0;left=0;bottom=0;right=0;pointerEvents=1;fontStyle=1;movable=1;resizable=1;rotatable=1;deletable=1;editable=1;locked=0;" parent="25trkPN82xEzG1GmqPAY-6" vertex="1">
          <mxGeometry x="357" width="150" height="44" as="geometry">
            <mxRectangle width="150" height="44" as="alternateBounds" />
          </mxGeometry>
        </mxCell>
        <mxCell id="25trkPN82xEzG1GmqPAY-10" value="" style="shape=partialRectangle;html=1;whiteSpace=wrap;connectable=1;strokeColor=inherit;overflow=hidden;fillColor=none;top=0;left=0;bottom=0;right=0;pointerEvents=1;movable=1;resizable=1;rotatable=1;deletable=1;editable=1;locked=0;" parent="25trkPN82xEzG1GmqPAY-6" vertex="1">
          <mxGeometry x="507" width="254" height="44" as="geometry">
            <mxRectangle width="254" height="44" as="alternateBounds" />
          </mxGeometry>
        </mxCell>
        <mxCell id="25trkPN82xEzG1GmqPAY-11" value="" style="shape=tableRow;horizontal=0;startSize=0;swimlaneHead=0;swimlaneBody=0;strokeColor=inherit;top=0;left=0;bottom=0;right=0;collapsible=0;dropTarget=0;fillColor=none;points=[[0,0.5],[1,0.5]];portConstraint=eastwest;movable=1;resizable=1;rotatable=1;deletable=1;editable=1;locked=0;connectable=1;" parent="25trkPN82xEzG1GmqPAY-5" vertex="1">
          <mxGeometry y="44" width="760.8333333333333" height="42" as="geometry" />
        </mxCell>
        <mxCell id="25trkPN82xEzG1GmqPAY-12" value="" style="shape=partialRectangle;html=1;whiteSpace=wrap;connectable=1;strokeColor=inherit;overflow=hidden;fillColor=none;top=0;left=0;bottom=0;right=0;pointerEvents=1;movable=1;resizable=1;rotatable=1;deletable=1;editable=1;locked=0;" parent="25trkPN82xEzG1GmqPAY-11" vertex="1">
          <mxGeometry width="231" height="42" as="geometry">
            <mxRectangle width="231" height="42" as="alternateBounds" />
          </mxGeometry>
        </mxCell>
        <mxCell id="25trkPN82xEzG1GmqPAY-13" value="" style="shape=partialRectangle;html=1;whiteSpace=wrap;connectable=1;strokeColor=inherit;overflow=hidden;fillColor=none;top=0;left=0;bottom=0;right=0;pointerEvents=1;movable=1;resizable=1;rotatable=1;deletable=1;editable=1;locked=0;" parent="25trkPN82xEzG1GmqPAY-11" vertex="1">
          <mxGeometry x="231" width="126" height="42" as="geometry">
            <mxRectangle width="126" height="42" as="alternateBounds" />
          </mxGeometry>
        </mxCell>
        <mxCell id="25trkPN82xEzG1GmqPAY-14" value="" style="shape=partialRectangle;html=1;whiteSpace=wrap;connectable=1;strokeColor=inherit;overflow=hidden;fillColor=none;top=0;left=0;bottom=0;right=0;pointerEvents=1;movable=1;resizable=1;rotatable=1;deletable=1;editable=1;locked=0;" parent="25trkPN82xEzG1GmqPAY-11" vertex="1">
          <mxGeometry x="357" width="150" height="42" as="geometry">
            <mxRectangle width="150" height="42" as="alternateBounds" />
          </mxGeometry>
        </mxCell>
        <mxCell id="25trkPN82xEzG1GmqPAY-15" value="" style="shape=partialRectangle;html=1;whiteSpace=wrap;connectable=1;strokeColor=inherit;overflow=hidden;fillColor=none;top=0;left=0;bottom=0;right=0;pointerEvents=1;movable=1;resizable=1;rotatable=1;deletable=1;editable=1;locked=0;" parent="25trkPN82xEzG1GmqPAY-11" vertex="1">
          <mxGeometry x="507" width="254" height="42" as="geometry">
            <mxRectangle width="254" height="42" as="alternateBounds" />
          </mxGeometry>
        </mxCell>
        <mxCell id="25trkPN82xEzG1GmqPAY-16" value="" style="shape=tableRow;horizontal=0;startSize=0;swimlaneHead=0;swimlaneBody=0;strokeColor=inherit;top=0;left=0;bottom=0;right=0;collapsible=0;dropTarget=0;fillColor=none;points=[[0,0.5],[1,0.5]];portConstraint=eastwest;movable=1;resizable=1;rotatable=1;deletable=1;editable=1;locked=0;connectable=1;" parent="25trkPN82xEzG1GmqPAY-5" vertex="1">
          <mxGeometry y="86" width="760.8333333333333" height="44" as="geometry" />
        </mxCell>
        <mxCell id="25trkPN82xEzG1GmqPAY-17" value="" style="shape=partialRectangle;html=1;whiteSpace=wrap;connectable=1;strokeColor=inherit;overflow=hidden;fillColor=none;top=0;left=0;bottom=0;right=0;pointerEvents=1;movable=1;resizable=1;rotatable=1;deletable=1;editable=1;locked=0;" parent="25trkPN82xEzG1GmqPAY-16" vertex="1">
          <mxGeometry width="231" height="44" as="geometry">
            <mxRectangle width="231" height="44" as="alternateBounds" />
          </mxGeometry>
        </mxCell>
        <mxCell id="25trkPN82xEzG1GmqPAY-18" value="" style="shape=partialRectangle;html=1;whiteSpace=wrap;connectable=1;strokeColor=inherit;overflow=hidden;fillColor=none;top=0;left=0;bottom=0;right=0;pointerEvents=1;movable=1;resizable=1;rotatable=1;deletable=1;editable=1;locked=0;" parent="25trkPN82xEzG1GmqPAY-16" vertex="1">
          <mxGeometry x="231" width="126" height="44" as="geometry">
            <mxRectangle width="126" height="44" as="alternateBounds" />
          </mxGeometry>
        </mxCell>
        <mxCell id="25trkPN82xEzG1GmqPAY-19" value="" style="shape=partialRectangle;html=1;whiteSpace=wrap;connectable=1;strokeColor=inherit;overflow=hidden;fillColor=none;top=0;left=0;bottom=0;right=0;pointerEvents=1;movable=1;resizable=1;rotatable=1;deletable=1;editable=1;locked=0;" parent="25trkPN82xEzG1GmqPAY-16" vertex="1">
          <mxGeometry x="357" width="150" height="44" as="geometry">
            <mxRectangle width="150" height="44" as="alternateBounds" />
          </mxGeometry>
        </mxCell>
        <mxCell id="25trkPN82xEzG1GmqPAY-20" value="" style="shape=partialRectangle;html=1;whiteSpace=wrap;connectable=1;strokeColor=inherit;overflow=hidden;fillColor=none;top=0;left=0;bottom=0;right=0;pointerEvents=1;movable=1;resizable=1;rotatable=1;deletable=1;editable=1;locked=0;" parent="25trkPN82xEzG1GmqPAY-16" vertex="1">
          <mxGeometry x="507" width="254" height="44" as="geometry">
            <mxRectangle width="254" height="44" as="alternateBounds" />
          </mxGeometry>
        </mxCell>
        <mxCell id="25trkPN82xEzG1GmqPAY-21" value="" style="shape=tableRow;horizontal=0;startSize=0;swimlaneHead=0;swimlaneBody=0;strokeColor=inherit;top=0;left=0;bottom=0;right=0;collapsible=0;dropTarget=0;fillColor=none;points=[[0,0.5],[1,0.5]];portConstraint=eastwest;movable=1;resizable=1;rotatable=1;deletable=1;editable=1;locked=0;connectable=1;" parent="25trkPN82xEzG1GmqPAY-5" vertex="1">
          <mxGeometry y="130" width="760.8333333333333" height="45" as="geometry" />
        </mxCell>
        <mxCell id="25trkPN82xEzG1GmqPAY-22" value="" style="shape=partialRectangle;html=1;whiteSpace=wrap;connectable=1;strokeColor=inherit;overflow=hidden;fillColor=none;top=0;left=0;bottom=0;right=0;pointerEvents=1;movable=1;resizable=1;rotatable=1;deletable=1;editable=1;locked=0;" parent="25trkPN82xEzG1GmqPAY-21" vertex="1">
          <mxGeometry width="231" height="45" as="geometry">
            <mxRectangle width="231" height="45" as="alternateBounds" />
          </mxGeometry>
        </mxCell>
        <mxCell id="25trkPN82xEzG1GmqPAY-23" value="" style="shape=partialRectangle;html=1;whiteSpace=wrap;connectable=1;strokeColor=inherit;overflow=hidden;fillColor=none;top=0;left=0;bottom=0;right=0;pointerEvents=1;movable=1;resizable=1;rotatable=1;deletable=1;editable=1;locked=0;" parent="25trkPN82xEzG1GmqPAY-21" vertex="1">
          <mxGeometry x="231" width="126" height="45" as="geometry">
            <mxRectangle width="126" height="45" as="alternateBounds" />
          </mxGeometry>
        </mxCell>
        <mxCell id="25trkPN82xEzG1GmqPAY-24" value="" style="shape=partialRectangle;html=1;whiteSpace=wrap;connectable=1;strokeColor=inherit;overflow=hidden;fillColor=none;top=0;left=0;bottom=0;right=0;pointerEvents=1;movable=1;resizable=1;rotatable=1;deletable=1;editable=1;locked=0;" parent="25trkPN82xEzG1GmqPAY-21" vertex="1">
          <mxGeometry x="357" width="150" height="45" as="geometry">
            <mxRectangle width="150" height="45" as="alternateBounds" />
          </mxGeometry>
        </mxCell>
        <mxCell id="25trkPN82xEzG1GmqPAY-25" value="" style="shape=partialRectangle;html=1;whiteSpace=wrap;connectable=1;strokeColor=inherit;overflow=hidden;fillColor=none;top=0;left=0;bottom=0;right=0;pointerEvents=1;movable=1;resizable=1;rotatable=1;deletable=1;editable=1;locked=0;" parent="25trkPN82xEzG1GmqPAY-21" vertex="1">
          <mxGeometry x="507" width="254" height="45" as="geometry">
            <mxRectangle width="254" height="45" as="alternateBounds" />
          </mxGeometry>
        </mxCell>
        <mxCell id="25trkPN82xEzG1GmqPAY-26" value="" style="shape=tableRow;horizontal=0;startSize=0;swimlaneHead=0;swimlaneBody=0;strokeColor=inherit;top=0;left=0;bottom=0;right=0;collapsible=0;dropTarget=0;fillColor=none;points=[[0,0.5],[1,0.5]];portConstraint=eastwest;movable=1;resizable=1;rotatable=1;deletable=1;editable=1;locked=0;connectable=1;" parent="25trkPN82xEzG1GmqPAY-5" vertex="1">
          <mxGeometry y="175" width="760.8333333333333" height="41" as="geometry" />
        </mxCell>
        <mxCell id="25trkPN82xEzG1GmqPAY-27" value="" style="shape=partialRectangle;html=1;whiteSpace=wrap;connectable=1;strokeColor=inherit;overflow=hidden;fillColor=none;top=0;left=0;bottom=0;right=0;pointerEvents=1;movable=1;resizable=1;rotatable=1;deletable=1;editable=1;locked=0;" parent="25trkPN82xEzG1GmqPAY-26" vertex="1">
          <mxGeometry width="231" height="41" as="geometry">
            <mxRectangle width="231" height="41" as="alternateBounds" />
          </mxGeometry>
        </mxCell>
        <mxCell id="25trkPN82xEzG1GmqPAY-28" value="" style="shape=partialRectangle;html=1;whiteSpace=wrap;connectable=1;strokeColor=inherit;overflow=hidden;fillColor=none;top=0;left=0;bottom=0;right=0;pointerEvents=1;movable=1;resizable=1;rotatable=1;deletable=1;editable=1;locked=0;" parent="25trkPN82xEzG1GmqPAY-26" vertex="1">
          <mxGeometry x="231" width="126" height="41" as="geometry">
            <mxRectangle width="126" height="41" as="alternateBounds" />
          </mxGeometry>
        </mxCell>
        <mxCell id="25trkPN82xEzG1GmqPAY-29" value="" style="shape=partialRectangle;html=1;whiteSpace=wrap;connectable=1;strokeColor=inherit;overflow=hidden;fillColor=none;top=0;left=0;bottom=0;right=0;pointerEvents=1;movable=1;resizable=1;rotatable=1;deletable=1;editable=1;locked=0;" parent="25trkPN82xEzG1GmqPAY-26" vertex="1">
          <mxGeometry x="357" width="150" height="41" as="geometry">
            <mxRectangle width="150" height="41" as="alternateBounds" />
          </mxGeometry>
        </mxCell>
        <mxCell id="25trkPN82xEzG1GmqPAY-30" value="" style="shape=partialRectangle;html=1;whiteSpace=wrap;connectable=1;strokeColor=inherit;overflow=hidden;fillColor=none;top=0;left=0;bottom=0;right=0;pointerEvents=1;movable=1;resizable=1;rotatable=1;deletable=1;editable=1;locked=0;" parent="25trkPN82xEzG1GmqPAY-26" vertex="1">
          <mxGeometry x="507" width="254" height="41" as="geometry">
            <mxRectangle width="254" height="41" as="alternateBounds" />
          </mxGeometry>
        </mxCell>
        <mxCell id="25trkPN82xEzG1GmqPAY-31" value="" style="shape=tableRow;horizontal=0;startSize=0;swimlaneHead=0;swimlaneBody=0;strokeColor=inherit;top=0;left=0;bottom=0;right=0;collapsible=0;dropTarget=0;fillColor=none;points=[[0,0.5],[1,0.5]];portConstraint=eastwest;movable=1;resizable=1;rotatable=1;deletable=1;editable=1;locked=0;connectable=1;" parent="25trkPN82xEzG1GmqPAY-5" vertex="1">
          <mxGeometry y="216" width="760.8333333333333" height="45" as="geometry" />
        </mxCell>
        <mxCell id="25trkPN82xEzG1GmqPAY-32" value="" style="shape=partialRectangle;html=1;whiteSpace=wrap;connectable=1;strokeColor=inherit;overflow=hidden;fillColor=none;top=0;left=0;bottom=0;right=0;pointerEvents=1;movable=1;resizable=1;rotatable=1;deletable=1;editable=1;locked=0;" parent="25trkPN82xEzG1GmqPAY-31" vertex="1">
          <mxGeometry width="231" height="45" as="geometry">
            <mxRectangle width="231" height="45" as="alternateBounds" />
          </mxGeometry>
        </mxCell>
        <mxCell id="25trkPN82xEzG1GmqPAY-33" value="" style="shape=partialRectangle;html=1;whiteSpace=wrap;connectable=1;strokeColor=inherit;overflow=hidden;fillColor=none;top=0;left=0;bottom=0;right=0;pointerEvents=1;movable=1;resizable=1;rotatable=1;deletable=1;editable=1;locked=0;" parent="25trkPN82xEzG1GmqPAY-31" vertex="1">
          <mxGeometry x="231" width="126" height="45" as="geometry">
            <mxRectangle width="126" height="45" as="alternateBounds" />
          </mxGeometry>
        </mxCell>
        <mxCell id="25trkPN82xEzG1GmqPAY-34" value="" style="shape=partialRectangle;html=1;whiteSpace=wrap;connectable=1;strokeColor=inherit;overflow=hidden;fillColor=none;top=0;left=0;bottom=0;right=0;pointerEvents=1;movable=1;resizable=1;rotatable=1;deletable=1;editable=1;locked=0;" parent="25trkPN82xEzG1GmqPAY-31" vertex="1">
          <mxGeometry x="357" width="150" height="45" as="geometry">
            <mxRectangle width="150" height="45" as="alternateBounds" />
          </mxGeometry>
        </mxCell>
        <mxCell id="25trkPN82xEzG1GmqPAY-35" value="" style="shape=partialRectangle;html=1;whiteSpace=wrap;connectable=1;strokeColor=inherit;overflow=hidden;fillColor=none;top=0;left=0;bottom=0;right=0;pointerEvents=1;movable=1;resizable=1;rotatable=1;deletable=1;editable=1;locked=0;" parent="25trkPN82xEzG1GmqPAY-31" vertex="1">
          <mxGeometry x="507" width="254" height="45" as="geometry">
            <mxRectangle width="254" height="45" as="alternateBounds" />
          </mxGeometry>
        </mxCell>
        <mxCell id="25trkPN82xEzG1GmqPAY-36" value="" style="strokeWidth=1;shadow=0;dashed=0;align=center;html=1;shape=mxgraph.mockup.forms.comboBox;strokeColor=#999999;fillColor=#ddeeff;align=left;fillColor2=#aaddff;mainText=;fontColor=#666666;fontSize=17;spacingLeft=3;movable=1;resizable=1;rotatable=1;deletable=1;editable=1;locked=0;connectable=1;" parent="25trkPN82xEzG1GmqPAY-1" vertex="1">
          <mxGeometry x="103.74999999999999" y="158.66666666666666" width="172.91666666666666" height="34" as="geometry" />
        </mxCell>
        <mxCell id="25trkPN82xEzG1GmqPAY-37" value="" style="strokeWidth=1;shadow=0;dashed=0;align=center;html=1;shape=mxgraph.mockup.forms.comboBox;strokeColor=#999999;fillColor=#ddeeff;align=left;fillColor2=#aaddff;mainText=;fontColor=#666666;fontSize=17;spacingLeft=3;movable=1;resizable=1;rotatable=1;deletable=1;editable=1;locked=0;connectable=1;" parent="25trkPN82xEzG1GmqPAY-1" vertex="1">
          <mxGeometry x="322.77777777777777" y="158.66666666666666" width="172.91666666666666" height="34" as="geometry" />
        </mxCell>
        <mxCell id="25trkPN82xEzG1GmqPAY-38" value="" style="rounded=1;whiteSpace=wrap;html=1;fillColor=#fff2cc;strokeColor=#d6b656;align=left;movable=1;resizable=1;rotatable=1;deletable=1;editable=1;locked=0;connectable=1;" parent="25trkPN82xEzG1GmqPAY-1" vertex="1">
          <mxGeometry x="34.58333333333333" y="90.66666666666666" width="760.8333333333333" height="45.33333333333333" as="geometry" />
        </mxCell>
        <mxCell id="25trkPN82xEzG1GmqPAY-39" value="" style="strokeWidth=1;shadow=0;dashed=0;align=center;html=1;shape=mxgraph.mockup.buttons.button;strokeColor=#b85450;mainText=;buttonStyle=round;fontSize=14;fontStyle=1;fillColor=#f8cecc;whiteSpace=wrap;movable=1;resizable=1;rotatable=1;deletable=1;editable=1;locked=0;connectable=1;" parent="25trkPN82xEzG1GmqPAY-1" vertex="1">
          <mxGeometry x="634.0277777777777" y="96.33333333333333" width="149.8611111111111" height="34" as="geometry" />
        </mxCell>
      </root>
    </mxGraphModel>
  </diagram>
  <diagram id="OZawq0-PnOk38ZsDcH_g" name="Empty scenario">
    <mxGraphModel dx="972" dy="706" grid="1" gridSize="10" guides="1" tooltips="1" connect="1" arrows="1" fold="1" page="1" pageScale="1" pageWidth="827" pageHeight="1169" math="0" shadow="0">
      <root>
        <mxCell id="0" />
        <mxCell id="1" parent="0" />
        <mxCell id="yYVZpfrSsbitcOfEdD43-49" value="" style="group;movable=1;resizable=1;rotatable=1;deletable=1;editable=1;locked=0;connectable=1;" vertex="1" connectable="0" parent="1">
          <mxGeometry x="90" y="210" width="540" height="340" as="geometry" />
        </mxCell>
        <mxCell id="yYVZpfrSsbitcOfEdD43-26" style="rounded=0;orthogonalLoop=1;jettySize=auto;html=1;exitX=1;exitY=0.25;exitDx=0;exitDy=0;entryX=0;entryY=0.25;entryDx=0;entryDy=0;fillColor=#d5e8d4;strokeColor=#82b366;endArrow=none;endFill=0;" edge="1" parent="yYVZpfrSsbitcOfEdD43-49" source="yYVZpfrSsbitcOfEdD43-28" target="yYVZpfrSsbitcOfEdD43-34">
          <mxGeometry relative="1" as="geometry">
            <mxPoint x="217.57359312880453" y="8.786796564402266" as="targetPoint" />
          </mxGeometry>
        </mxCell>
        <mxCell id="yYVZpfrSsbitcOfEdD43-27" style="rounded=0;orthogonalLoop=1;jettySize=auto;html=1;exitX=1;exitY=0.75;exitDx=0;exitDy=0;entryX=0;entryY=0.75;entryDx=0;entryDy=0;fillColor=#ffe6cc;strokeColor=#d79b00;endArrow=none;endFill=0;" edge="1" parent="yYVZpfrSsbitcOfEdD43-49" source="yYVZpfrSsbitcOfEdD43-28" target="yYVZpfrSsbitcOfEdD43-34">
          <mxGeometry relative="1" as="geometry">
            <mxPoint x="217.57359312880453" y="51.21320343559762" as="targetPoint" />
          </mxGeometry>
        </mxCell>
        <mxCell id="yYVZpfrSsbitcOfEdD43-28" value="" style="rounded=1;whiteSpace=wrap;html=1;container=0;" vertex="1" parent="yYVZpfrSsbitcOfEdD43-49">
          <mxGeometry width="120" height="60" as="geometry" />
        </mxCell>
        <mxCell id="yYVZpfrSsbitcOfEdD43-29" value="" style="ellipse;whiteSpace=wrap;html=1;fillColor=#dae8fc;strokeColor=#6c8ebf;container=0;" vertex="1" parent="yYVZpfrSsbitcOfEdD43-49">
          <mxGeometry x="420" y="70" width="120" height="60" as="geometry" />
        </mxCell>
        <mxCell id="yYVZpfrSsbitcOfEdD43-30" value="" style="ellipse;whiteSpace=wrap;html=1;fillColor=#f8cecc;strokeColor=#b85450;container=0;" vertex="1" parent="yYVZpfrSsbitcOfEdD43-49">
          <mxGeometry x="420" y="210" width="120" height="60" as="geometry" />
        </mxCell>
        <mxCell id="yYVZpfrSsbitcOfEdD43-31" style="rounded=0;orthogonalLoop=1;jettySize=auto;html=1;exitX=1;exitY=0.25;exitDx=0;exitDy=0;entryX=0.5;entryY=0;entryDx=0;entryDy=0;fillColor=#d5e8d4;strokeColor=#82b366;endArrow=none;endFill=0;" edge="1" parent="yYVZpfrSsbitcOfEdD43-49" source="yYVZpfrSsbitcOfEdD43-34" target="yYVZpfrSsbitcOfEdD43-29">
          <mxGeometry relative="1" as="geometry" />
        </mxCell>
        <mxCell id="yYVZpfrSsbitcOfEdD43-32" style="rounded=0;orthogonalLoop=1;jettySize=auto;html=1;exitX=1;exitY=0.75;exitDx=0;exitDy=0;entryX=0;entryY=0.5;entryDx=0;entryDy=0;fillColor=#ffe6cc;strokeColor=#d79b00;endArrow=none;endFill=0;" edge="1" parent="yYVZpfrSsbitcOfEdD43-49" source="yYVZpfrSsbitcOfEdD43-34" target="yYVZpfrSsbitcOfEdD43-29">
          <mxGeometry relative="1" as="geometry" />
        </mxCell>
        <mxCell id="yYVZpfrSsbitcOfEdD43-33" style="rounded=0;orthogonalLoop=1;jettySize=auto;html=1;exitX=1;exitY=0.75;exitDx=0;exitDy=0;entryX=0;entryY=0;entryDx=0;entryDy=0;fillColor=#ffe6cc;strokeColor=#d79b00;endArrow=none;endFill=0;" edge="1" parent="yYVZpfrSsbitcOfEdD43-49" source="yYVZpfrSsbitcOfEdD43-34" target="yYVZpfrSsbitcOfEdD43-29">
          <mxGeometry relative="1" as="geometry" />
        </mxCell>
        <mxCell id="yYVZpfrSsbitcOfEdD43-34" value="" style="rounded=1;whiteSpace=wrap;html=1;fillColor=#dae8fc;strokeColor=#6c8ebf;container=0;" vertex="1" parent="yYVZpfrSsbitcOfEdD43-49">
          <mxGeometry x="220" width="120" height="60" as="geometry" />
        </mxCell>
        <mxCell id="yYVZpfrSsbitcOfEdD43-35" style="rounded=0;orthogonalLoop=1;jettySize=auto;html=1;exitX=1;exitY=0.25;exitDx=0;exitDy=0;entryX=0;entryY=0.25;entryDx=0;entryDy=0;fillColor=#d5e8d4;strokeColor=#82b366;endArrow=none;endFill=0;" edge="1" parent="yYVZpfrSsbitcOfEdD43-49" source="yYVZpfrSsbitcOfEdD43-37" target="yYVZpfrSsbitcOfEdD43-41">
          <mxGeometry relative="1" as="geometry">
            <mxPoint x="217.57359312880453" y="148.78679656440227" as="targetPoint" />
          </mxGeometry>
        </mxCell>
        <mxCell id="yYVZpfrSsbitcOfEdD43-36" style="rounded=0;orthogonalLoop=1;jettySize=auto;html=1;exitX=1;exitY=0.75;exitDx=0;exitDy=0;entryX=0;entryY=0.75;entryDx=0;entryDy=0;fillColor=#ffe6cc;strokeColor=#d79b00;endArrow=none;endFill=0;" edge="1" parent="yYVZpfrSsbitcOfEdD43-49" source="yYVZpfrSsbitcOfEdD43-37" target="yYVZpfrSsbitcOfEdD43-41">
          <mxGeometry relative="1" as="geometry">
            <mxPoint x="217.57359312880453" y="191.21320343559762" as="targetPoint" />
          </mxGeometry>
        </mxCell>
        <mxCell id="yYVZpfrSsbitcOfEdD43-37" value="" style="rounded=1;whiteSpace=wrap;html=1;container=0;" vertex="1" parent="yYVZpfrSsbitcOfEdD43-49">
          <mxGeometry y="140" width="120" height="60" as="geometry" />
        </mxCell>
        <mxCell id="yYVZpfrSsbitcOfEdD43-38" style="rounded=0;orthogonalLoop=1;jettySize=auto;html=1;exitX=1;exitY=0.25;exitDx=0;exitDy=0;entryX=0;entryY=1;entryDx=0;entryDy=0;fillColor=#d5e8d4;strokeColor=#82b366;endArrow=none;endFill=0;" edge="1" parent="yYVZpfrSsbitcOfEdD43-49" source="yYVZpfrSsbitcOfEdD43-41" target="yYVZpfrSsbitcOfEdD43-29">
          <mxGeometry relative="1" as="geometry" />
        </mxCell>
        <mxCell id="yYVZpfrSsbitcOfEdD43-39" style="rounded=0;orthogonalLoop=1;jettySize=auto;html=1;exitX=1;exitY=0.75;exitDx=0;exitDy=0;entryX=0;entryY=0;entryDx=0;entryDy=0;fillColor=#ffe6cc;strokeColor=#d79b00;endArrow=none;endFill=0;" edge="1" parent="yYVZpfrSsbitcOfEdD43-49" source="yYVZpfrSsbitcOfEdD43-41" target="yYVZpfrSsbitcOfEdD43-30">
          <mxGeometry relative="1" as="geometry" />
        </mxCell>
        <mxCell id="yYVZpfrSsbitcOfEdD43-40" style="rounded=0;orthogonalLoop=1;jettySize=auto;html=1;exitX=1;exitY=0.75;exitDx=0;exitDy=0;entryX=0.5;entryY=1;entryDx=0;entryDy=0;fillColor=#ffe6cc;strokeColor=#d79b00;endArrow=none;endFill=0;" edge="1" parent="yYVZpfrSsbitcOfEdD43-49" source="yYVZpfrSsbitcOfEdD43-41" target="yYVZpfrSsbitcOfEdD43-29">
          <mxGeometry relative="1" as="geometry" />
        </mxCell>
        <mxCell id="yYVZpfrSsbitcOfEdD43-41" value="" style="rounded=1;whiteSpace=wrap;html=1;fillColor=#dae8fc;strokeColor=#6c8ebf;container=0;" vertex="1" parent="yYVZpfrSsbitcOfEdD43-49">
          <mxGeometry x="220" y="140" width="120" height="60" as="geometry" />
        </mxCell>
        <mxCell id="yYVZpfrSsbitcOfEdD43-42" style="rounded=0;orthogonalLoop=1;jettySize=auto;html=1;exitX=1;exitY=0.25;exitDx=0;exitDy=0;entryX=0;entryY=0.25;entryDx=0;entryDy=0;fillColor=#d5e8d4;strokeColor=#82b366;endArrow=none;endFill=0;" edge="1" parent="yYVZpfrSsbitcOfEdD43-49" source="yYVZpfrSsbitcOfEdD43-44" target="yYVZpfrSsbitcOfEdD43-48">
          <mxGeometry relative="1" as="geometry">
            <mxPoint x="217.57359312880453" y="288.78679656440227" as="targetPoint" />
          </mxGeometry>
        </mxCell>
        <mxCell id="yYVZpfrSsbitcOfEdD43-43" style="rounded=0;orthogonalLoop=1;jettySize=auto;html=1;exitX=1;exitY=0.75;exitDx=0;exitDy=0;entryX=0;entryY=0.75;entryDx=0;entryDy=0;fillColor=#ffe6cc;strokeColor=#d79b00;endArrow=none;endFill=0;" edge="1" parent="yYVZpfrSsbitcOfEdD43-49" source="yYVZpfrSsbitcOfEdD43-44" target="yYVZpfrSsbitcOfEdD43-48">
          <mxGeometry relative="1" as="geometry">
            <mxPoint x="217.57359312880453" y="331.2132034355976" as="targetPoint" />
          </mxGeometry>
        </mxCell>
        <mxCell id="yYVZpfrSsbitcOfEdD43-44" value="" style="rounded=1;whiteSpace=wrap;html=1;container=0;" vertex="1" parent="yYVZpfrSsbitcOfEdD43-49">
          <mxGeometry y="280" width="120" height="60" as="geometry" />
        </mxCell>
        <mxCell id="yYVZpfrSsbitcOfEdD43-45" style="rounded=0;orthogonalLoop=1;jettySize=auto;html=1;exitX=1;exitY=0.25;exitDx=0;exitDy=0;entryX=0;entryY=0.5;entryDx=0;entryDy=0;fillColor=#d5e8d4;strokeColor=#82b366;endArrow=none;endFill=0;" edge="1" parent="yYVZpfrSsbitcOfEdD43-49" source="yYVZpfrSsbitcOfEdD43-48" target="yYVZpfrSsbitcOfEdD43-30">
          <mxGeometry relative="1" as="geometry" />
        </mxCell>
        <mxCell id="yYVZpfrSsbitcOfEdD43-46" style="rounded=0;orthogonalLoop=1;jettySize=auto;html=1;exitX=1;exitY=0.75;exitDx=0;exitDy=0;entryX=0;entryY=1;entryDx=0;entryDy=0;fillColor=#ffe6cc;strokeColor=#d79b00;endArrow=none;endFill=0;" edge="1" parent="yYVZpfrSsbitcOfEdD43-49" source="yYVZpfrSsbitcOfEdD43-48" target="yYVZpfrSsbitcOfEdD43-30">
          <mxGeometry relative="1" as="geometry" />
        </mxCell>
        <mxCell id="yYVZpfrSsbitcOfEdD43-47" style="rounded=0;orthogonalLoop=1;jettySize=auto;html=1;exitX=1;exitY=0.75;exitDx=0;exitDy=0;entryX=0.5;entryY=1;entryDx=0;entryDy=0;fillColor=#ffe6cc;strokeColor=#d79b00;endArrow=none;endFill=0;" edge="1" parent="yYVZpfrSsbitcOfEdD43-49" source="yYVZpfrSsbitcOfEdD43-48" target="yYVZpfrSsbitcOfEdD43-30">
          <mxGeometry relative="1" as="geometry" />
        </mxCell>
        <mxCell id="yYVZpfrSsbitcOfEdD43-48" value="" style="rounded=1;whiteSpace=wrap;html=1;fillColor=#dae8fc;strokeColor=#6c8ebf;container=0;" vertex="1" parent="yYVZpfrSsbitcOfEdD43-49">
          <mxGeometry x="220" y="280" width="120" height="60" as="geometry" />
        </mxCell>
      </root>
    </mxGraphModel>
  </diagram>
</mxfile>
